<svg width="26" height="25" viewBox="0 0 26 25" fill="none" xmlns="http://www.w3.org/2000/svg">
<g id="instagram 1" clip-path="url(#clip0_3118_1480)">
<path id="Vector" d="M18.3719 -0.00488281H7.04706C3.36129 -0.00488281 0.362793 2.99362 0.362793 6.67939V18.0044C0.362793 21.69 3.36129 24.6885 7.04706 24.6885H18.3721C22.0577 24.6885 25.0562 21.69 25.0562 18.0044V6.67939C25.0562 2.99362 22.0577 -0.00488281 18.3719 -0.00488281V-0.00488281ZM23.6085 18.0044C23.6085 20.8917 21.2594 23.2409 18.3719 23.2409H7.04706C4.15953 23.2409 1.81042 20.8917 1.81042 18.0044V6.67939C1.81042 3.79185 4.15953 1.44275 7.04706 1.44275H18.3721C21.2594 1.44275 23.6085 3.79185 23.6085 6.67939V18.0044Z" fill="black"/>
<path id="Vector_2" d="M12.7094 5.58984C8.98635 5.58984 5.95752 8.61868 5.95752 12.3417C5.95752 16.0648 8.98635 19.0936 12.7094 19.0936C16.4325 19.0936 19.4613 16.0648 19.4613 12.3417C19.4613 8.61868 16.4325 5.58984 12.7094 5.58984ZM12.7094 17.646C9.78477 17.646 7.40515 15.2666 7.40515 12.3417C7.40515 9.4171 9.78477 7.03747 12.7094 7.03747C15.6343 7.03747 18.0137 9.4171 18.0137 12.3417C18.0137 15.2666 15.6343 17.646 12.7094 17.646Z" fill="black"/>
<path id="Vector_3" d="M19.623 3.19238C18.5228 3.19238 17.6279 4.08745 17.6279 5.18749C17.6279 6.28772 18.5228 7.18279 19.623 7.18279C20.7233 7.18279 21.6183 6.28772 21.6183 5.18749C21.6183 4.08726 20.7233 3.19238 19.623 3.19238ZM19.623 5.73497C19.3212 5.73497 19.0756 5.4893 19.0756 5.18749C19.0756 4.88549 19.3212 4.64001 19.623 4.64001C19.925 4.64001 20.1707 4.88549 20.1707 5.18749C20.1707 5.4893 19.925 5.73497 19.623 5.73497Z" fill="black"/>
</g>
<defs>
<clipPath id="clip0_3118_1480">
<rect width="24.6934" height="24.6934" fill="white" transform="translate(0.362793 -0.00488281)"/>
</clipPath>
</defs>
</svg>
