<svg width="26" height="25" viewBox="0 0 26 25" fill="none" xmlns="http://www.w3.org/2000/svg">
<g id="instagram 1" clip-path="url(#clip0_3118_1480)">
<path id="Vector" d="M18.3724 -0.00488281H7.04755C3.36178 -0.00488281 0.363281 2.99362 0.363281 6.67939V18.0044C0.363281 21.69 3.36178 24.6885 7.04755 24.6885H18.3726C22.0581 24.6885 25.0566 21.69 25.0566 18.0044V6.67939C25.0566 2.99362 22.0581 -0.00488281 18.3724 -0.00488281V-0.00488281ZM23.609 18.0044C23.609 20.8917 21.2599 23.2409 18.3724 23.2409H7.04755C4.16001 23.2409 1.81091 20.8917 1.81091 18.0044V6.67939C1.81091 3.79185 4.16001 1.44275 7.04755 1.44275H18.3726C21.2599 1.44275 23.609 3.79185 23.609 6.67939V18.0044Z" fill="black"/>
<path id="Vector_2" d="M12.7099 5.58984C8.98684 5.58984 5.95801 8.61868 5.95801 12.3417C5.95801 16.0648 8.98684 19.0936 12.7099 19.0936C16.433 19.0936 19.4618 16.0648 19.4618 12.3417C19.4618 8.61868 16.433 5.58984 12.7099 5.58984ZM12.7099 17.646C9.78526 17.646 7.40564 15.2666 7.40564 12.3417C7.40564 9.4171 9.78526 7.03747 12.7099 7.03747C15.6347 7.03747 18.0142 9.4171 18.0142 12.3417C18.0142 15.2666 15.6347 17.646 12.7099 17.646Z" fill="black"/>
<path id="Vector_3" d="M19.6233 3.19238C18.5231 3.19238 17.6282 4.08745 17.6282 5.18749C17.6282 6.28772 18.5231 7.18279 19.6233 7.18279C20.7235 7.18279 21.6186 6.28772 21.6186 5.18749C21.6186 4.08726 20.7235 3.19238 19.6233 3.19238ZM19.6233 5.73497C19.3215 5.73497 19.0758 5.4893 19.0758 5.18749C19.0758 4.88549 19.3215 4.64001 19.6233 4.64001C19.9253 4.64001 20.1709 4.88549 20.1709 5.18749C20.1709 5.4893 19.9253 5.73497 19.6233 5.73497Z" fill="black"/>
</g>
<defs>
<clipPath id="clip0_3118_1480">
<rect width="24.6934" height="24.6934" fill="white" transform="translate(0.363281 -0.00488281)"/>
</clipPath>
</defs>
</svg>
