<svg width="22" height="22" viewBox="0 0 22 22" fill="none" xmlns="http://www.w3.org/2000/svg">
<g id="linkedin 1" clip-path="url(#clip0_3118_1494)">
<path id="Vector" d="M21.2008 21.7898V21.7889H21.206V14.1259C21.206 10.377 20.399 7.48926 16.0164 7.48926C13.9095 7.48926 12.4957 8.64542 11.9185 9.7415H11.8575V7.83924H7.70215V21.7889H12.029V14.8815C12.029 13.0628 12.3738 11.3042 14.626 11.3042C16.8452 11.3042 16.8783 13.3797 16.8783 14.9982V21.7898H21.2008Z" fill="black"/>
<path id="Vector_2" d="M0.65625 7.83984H4.98836V21.7895H0.65625V7.83984Z" fill="black"/>
<path id="Vector_3" d="M2.8206 0.895508C1.43547 0.895508 0.311523 2.01945 0.311523 3.40458C0.311523 4.78971 1.43547 5.93716 2.8206 5.93716C4.20572 5.93716 5.32967 4.78971 5.32967 3.40458C5.3288 2.01945 4.20485 0.895508 2.8206 0.895508V0.895508Z" fill="black"/>
</g>
<defs>
<clipPath id="clip0_3118_1494">
<rect width="20.8944" height="20.8944" fill="white" transform="translate(0.311523 0.895508)"/>
</clipPath>
</defs>
</svg>
