<svg width="22" height="22" viewBox="0 0 22 22" fill="none" xmlns="http://www.w3.org/2000/svg">
<g id="linkedin 1" clip-path="url(#clip0_3118_1494)">
<path id="Vector" d="M21.2018 21.7898V21.7889H21.207V14.1259C21.207 10.377 20.4 7.48926 16.0174 7.48926C13.9105 7.48926 12.4967 8.64542 11.9194 9.7415H11.8585V7.83924H7.70312V21.7889H12.03V14.8815C12.03 13.0628 12.3748 11.3042 14.627 11.3042C16.8462 11.3042 16.8793 13.3797 16.8793 14.9982V21.7898H21.2018Z" fill="black"/>
<path id="Vector_2" d="M0.657227 7.83984H4.98934V21.7895H0.657227V7.83984Z" fill="black"/>
<path id="Vector_3" d="M2.82157 0.895508C1.43645 0.895508 0.3125 2.01945 0.3125 3.40458C0.3125 4.78971 1.43645 5.93716 2.82157 5.93716C4.2067 5.93716 5.33064 4.78971 5.33064 3.40458C5.32977 2.01945 4.20583 0.895508 2.82157 0.895508V0.895508Z" fill="black"/>
</g>
<defs>
<clipPath id="clip0_3118_1494">
<rect width="20.8944" height="20.8944" fill="white" transform="translate(0.3125 0.895508)"/>
</clipPath>
</defs>
</svg>
