<svg width="237" height="201" viewBox="0 0 237 201" fill="none" xmlns="http://www.w3.org/2000/svg">
<path d="M194.034 13L231.399 13L169.999 187.947L133.634 187.947L194.034 13Z" fill="#1090CB" fill-opacity="0.7"/>
<path d="M96.9999 132.089L63.2722 132.089L81 187.947L115.526 187.947L96.9999 132.089Z" fill="#1090CB" fill-opacity="0.52"/>
<path d="M142.044 136.832L116 137L132.544 187.94L158.559 187.94L142.044 136.832Z" fill="#1090CB" fill-opacity="0.7"/>
<path d="M112.5 136.887L135.705 136.887L118.69 187.995L93.2688 187.995L112.5 136.887Z" fill="#1090CB" fill-opacity="0.7"/>
<path d="M66.0342 13.4595L103.399 13.4595L41.9986 188.406L5.63403 188.406L66.0342 13.4595Z" fill="#1090CB" fill-opacity="0.9"/>
<path d="M104.725 13.4595L78.0735 13.4595L107.982 101.765L132.626 99.3328L104.725 13.4595Z" fill="#1090CB" fill-opacity="0.9"/>
<path d="M97.2036 96.7611L104.566 118.767L50.7008 118.847L42.635 94.7394L97.2036 96.7611Z" fill="#1090CB" fill-opacity="0.9"/>
<path d="M155.967 107.412L150.791 105.645L149.78 105.511L149.267 105.124L150.23 102.304C150.385 101.85 150.578 101.43 150.808 101.044C151.035 100.649 151.321 100.327 151.666 100.079C152.014 99.8243 152.437 99.6766 152.937 99.636C153.44 99.5891 154.038 99.6841 154.732 99.921C155.426 100.158 155.963 100.451 156.344 100.799C156.719 101.146 156.972 101.528 157.104 101.946C157.236 102.365 157.277 102.802 157.228 103.257C157.18 103.705 157.081 104.15 156.93 104.592L155.967 107.412ZM155.041 105.173L155.416 104.075C155.606 103.52 155.606 103.044 155.417 102.649C155.222 102.251 154.79 101.938 154.121 101.71C153.452 101.481 152.937 101.474 152.575 101.689C152.208 101.895 151.932 102.272 151.744 102.821L151.369 103.919L155.041 105.173ZM154.002 97.6635L152.38 98.4518L151.589 96.8395L153.201 96.048L154.002 97.6635ZM158.452 100.134L155.32 99.0646L154.495 99.0048L153.982 98.6184L154.567 96.9055L159.034 98.4308L158.452 100.134ZM162.329 96.3013C162.275 96.459 162.207 96.6367 162.126 96.8343C162.05 97.034 161.985 97.1948 161.929 97.3167L160.977 98.2806L159.908 97.3873L160.898 96.0663C161.185 95.2272 160.978 94.6881 160.277 94.449L160.098 94.3876L160.018 94.4661C160.076 94.5846 160.119 94.7578 160.147 94.9857C160.171 95.2051 160.112 95.5198 159.972 95.9299C159.871 96.2265 159.701 96.4887 159.461 96.7168C159.215 96.9427 158.897 97.0879 158.509 97.1526C158.123 97.2109 157.668 97.1506 157.144 96.9718C156.557 96.7715 156.117 96.5227 155.824 96.2254C155.525 95.9259 155.34 95.6126 155.268 95.2853C155.199 94.9517 155.215 94.6366 155.316 94.3401C155.428 94.012 155.567 93.76 155.733 93.5841C155.901 93.4019 156.041 93.2912 156.153 93.252L155.841 93.1454L156.425 91.4325L157.026 91.5317L157.558 91.8297L160.892 92.9577C161.435 93.143 161.84 93.401 162.107 93.7319C162.377 94.0564 162.525 94.438 162.551 94.8767C162.58 95.3091 162.505 95.784 162.329 96.3013ZM158.88 94.7645C158.919 94.651 158.939 94.5415 158.94 94.4361C158.941 94.3307 158.936 94.2516 158.926 94.1988L157.156 93.5945C157.128 93.6133 157.093 93.6542 157.051 93.7171C157.008 93.78 156.966 93.8714 156.925 93.9913C156.841 94.2374 156.853 94.4599 156.962 94.6588C157.07 94.8578 157.301 95.0176 157.654 95.1382C158.001 95.2567 158.277 95.2735 158.482 95.1885C158.681 95.1015 158.814 94.9601 158.88 94.7645ZM156.807 89.4477L155.186 90.2359L154.394 88.6236L156.006 87.8322L156.807 89.4477ZM161.258 91.9183L158.125 90.8487L157.3 90.7889L156.788 90.4025L157.373 88.6897L161.839 90.2149L161.258 91.9183ZM162.855 87.5502C162.708 87.9792 162.465 88.2799 162.124 88.4524C161.783 88.6249 161.421 88.6455 161.036 88.5141L158.973 87.8096L158.737 88.5005L157.838 88.1935L157.578 87.4389L156.634 86.3663L157.015 85.2496L158.387 85.7182L158.84 84.3933L160.07 84.8134L159.617 86.1383L161.643 86.8298L162.086 85.5017L163.117 85.8539C163.117 85.8539 163.117 85.9382 163.115 86.1069C163.11 86.2671 163.088 86.4746 163.051 86.7294C163.019 86.9864 162.954 87.26 162.855 87.5502ZM164.111 83.8723C164.018 84.1436 163.894 84.383 163.739 84.5906C163.579 84.7897 163.378 84.9253 163.135 84.9973C162.892 85.0693 162.597 85.0461 162.25 84.9276C161.935 84.8199 161.7 84.6516 161.545 84.4228C161.391 84.194 161.31 83.9267 161.301 83.6209C161.293 83.3152 161.347 82.9919 161.463 82.6513C161.575 82.3232 161.697 82.0901 161.829 81.9519C161.954 81.8115 162.075 81.6944 162.192 81.6003L162.158 81.5147C161.969 81.4501 161.805 81.412 161.669 81.4005C161.532 81.3889 161.412 81.4292 161.31 81.5212C161.202 81.611 161.107 81.7758 161.025 82.0156C160.946 82.249 160.883 82.5058 160.836 82.7858C160.786 83.0574 160.754 83.3144 160.742 83.5568C160.726 83.7906 160.727 83.9709 160.748 84.0976L159.328 83.6128C159.325 83.3936 159.357 83.0944 159.423 82.7154C159.485 82.328 159.606 81.8692 159.787 81.3393C159.981 80.7715 160.207 80.3483 160.464 80.0698C160.717 79.7828 161.004 79.6131 161.325 79.5606C161.639 79.506 161.983 79.5422 162.355 79.6693L163.613 80.0991L164.634 80.2362L165.128 80.6161L164.575 82.2344L164.111 82.0761L164.032 82.1545C164.065 82.2222 164.107 82.3353 164.159 82.4938C164.21 82.6523 164.242 82.8497 164.253 83.0859C164.257 83.3199 164.21 83.5821 164.111 83.8723ZM163.146 82.6446C163.204 82.4742 163.238 82.3237 163.247 82.1931C163.259 82.0561 163.261 81.955 163.256 81.8896L163.076 81.8282C162.994 81.8002 162.894 81.8332 162.778 81.9272C162.663 82.0149 162.564 82.1818 162.48 82.4278C162.364 82.7685 162.425 82.9798 162.665 83.0616C162.766 83.0961 162.855 83.0841 162.931 83.0256C163.007 82.9672 163.079 82.8401 163.146 82.6446ZM165.509 79.4695L160.319 77.7082L159.308 77.5743L158.808 77.1817L159.39 75.4782L166.09 77.7661L165.509 79.4695ZM167.738 72.9396L162.026 72.6797L160.992 72.6437L160.424 72.4498L161.038 70.6517L166.325 71.1362L166.39 70.9469L161.814 68.3805L162.663 65.8916L166.597 66.4104L167.85 66.6694L167.915 66.4801L163.433 63.6392L164.04 61.8601L164.608 62.054L165.448 62.6578L170.133 65.9271L169.296 68.3781L164.023 67.6661L163.955 67.8648L165.045 68.4167L168.575 70.4885L167.738 72.9396ZM171.645 61.8086C171.479 62.2944 171.259 62.7018 170.984 63.0308C170.71 63.3598 170.366 63.5734 169.952 63.6716C169.538 63.7697 169.041 63.7197 168.46 63.5215C168.044 63.3793 167.711 63.1882 167.462 62.9482C167.215 62.7018 167.041 62.4275 166.94 62.1253C166.833 61.8209 166.788 61.5065 166.808 61.182C166.821 60.8553 166.881 60.5342 166.989 60.2188C167.174 59.6762 167.37 59.2781 167.576 59.0245C167.785 58.7646 167.937 58.5981 168.032 58.525L169.698 58.5657L170.22 58.9553L169.219 61.889C169.467 61.9245 169.703 61.8746 169.925 61.7392C170.147 61.6037 170.333 61.3184 170.481 60.8831C170.598 60.5424 170.66 60.2361 170.668 59.9642C170.677 59.6923 170.676 59.4772 170.667 59.319L171.935 59.7521C171.971 59.9758 171.966 60.2804 171.919 60.6659C171.867 61.0429 171.776 61.4238 171.645 61.8086ZM168.616 61.6727L168.873 60.3021L168.437 60.2483C168.396 60.2839 168.355 60.3436 168.312 60.4277C168.272 60.5054 168.24 60.5758 168.219 60.6389C168.159 60.8155 168.146 60.9767 168.181 61.1224C168.218 61.2618 168.279 61.3814 168.365 61.4811C168.446 61.5724 168.53 61.6362 168.616 61.6727ZM173.712 55.7556C173.608 56.0584 173.497 56.2916 173.378 56.4552C173.267 56.6146 173.172 56.7267 173.094 56.7915C173.009 56.8542 172.966 56.8855 172.966 56.8855L173.203 56.9663L172.621 58.6697L167.435 56.8989L166.421 56.7744L165.921 56.3818L166.503 54.6784L168.027 55.1987L169.064 55.6584L169.143 55.58C169.066 55.4129 169.006 55.2195 168.961 54.9999C168.912 54.7719 168.944 54.4938 169.056 54.1658C169.247 53.6043 169.577 53.2272 170.044 53.0345C170.514 52.8356 171.136 52.8686 171.912 53.1335C172.493 53.3317 172.935 53.5742 173.238 53.8611C173.538 54.1394 173.72 54.4412 173.785 54.7663C173.85 55.0915 173.826 55.4212 173.712 55.7556ZM172.14 56.1173C172.224 55.8713 172.206 55.6466 172.085 55.4433C171.958 55.2379 171.721 55.0759 171.374 54.9575C171.033 54.8411 170.767 54.817 170.575 54.8852C170.376 54.9512 170.237 55.1009 170.157 55.3344L170.175 55.9322L171.869 56.5106C171.869 56.5106 171.902 56.4866 171.967 56.4386C172.029 56.3821 172.087 56.275 172.14 56.1173ZM175.12 51.3214L173.676 50.321L172.474 49.9106L172.429 49.1134L169.244 46.6519L170.081 44.2009L174.841 44.125L176.433 43.8551L177.54 44.2332L176.968 45.9082L175.293 45.8644L174.352 48.6183L175.728 49.5422L175.12 51.3214ZM173.108 47.496L173.658 45.8872L171.245 45.8665L171.177 46.0652L173.108 47.496ZM180.698 42.5054C180.644 42.6631 180.577 42.8407 180.495 43.0383C180.42 43.2381 180.354 43.3989 180.299 43.5207L179.346 44.4846L178.277 43.5914L179.267 42.2704C179.554 41.4313 179.347 40.8922 178.647 40.6531L178.467 40.5917L178.387 40.6701C178.445 40.7886 178.488 40.9618 178.516 41.1897C178.54 41.4091 178.482 41.7239 178.342 42.134C178.24 42.4305 178.07 42.6928 177.83 42.9208C177.584 43.1467 177.266 43.292 176.878 43.3566C176.492 43.4149 176.037 43.3547 175.513 43.1759C174.927 42.9755 174.487 42.7267 174.194 42.4294C173.894 42.13 173.709 41.8166 173.638 41.4893C173.568 41.1557 173.584 40.8406 173.686 40.5441C173.798 40.2161 173.937 39.9641 174.102 39.7882C174.27 39.606 174.41 39.4953 174.522 39.456L174.21 39.3494L174.795 37.6365L175.395 37.7358L175.927 38.0337L179.262 39.1617C179.804 39.347 180.209 39.6051 180.477 39.9359C180.746 40.2604 180.894 40.6421 180.92 41.0808C180.949 41.5132 180.875 41.988 180.698 42.5054ZM177.25 40.9686C177.288 40.855 177.308 40.7455 177.309 40.6401C177.31 40.5347 177.305 40.4556 177.295 40.4029L175.525 39.7986C175.498 39.8174 175.463 39.8582 175.42 39.9211C175.377 39.9841 175.336 40.0755 175.295 40.1954C175.211 40.4414 175.223 40.6639 175.331 40.8629C175.439 41.0618 175.67 41.2216 176.023 41.3423C176.37 41.4608 176.646 41.4775 176.851 41.3926C177.05 41.3055 177.183 41.1642 177.25 40.9686ZM180.465 35.9781C180.299 36.4639 180.079 36.8713 179.804 37.2003C179.53 37.5292 179.186 37.7428 178.772 37.841C178.358 37.9392 177.861 37.8892 177.281 37.691C176.864 37.5488 176.531 37.3577 176.282 37.1176C176.035 36.8713 175.861 36.597 175.76 36.2948C175.653 35.9904 175.609 35.6759 175.628 35.3514C175.641 35.0247 175.701 34.7037 175.809 34.3882C175.994 33.8456 176.19 33.4476 176.396 33.194C176.605 32.9341 176.757 32.7676 176.852 32.6945L178.518 32.7351L179.04 33.1247L178.039 36.0584C178.287 36.0939 178.523 36.044 178.745 35.9086C178.967 35.7732 179.153 35.4878 179.302 35.0525C179.418 34.7118 179.48 34.4055 179.488 34.1336C179.497 33.8617 179.496 33.6467 179.487 33.4885L180.755 33.9215C180.791 34.1452 180.786 34.4498 180.739 34.8353C180.688 35.2123 180.596 35.5932 180.465 35.9781ZM177.436 35.8421L177.693 34.4715L177.257 34.4178C177.217 34.4533 177.175 34.5131 177.132 34.5971C177.092 34.6748 177.061 34.7452 177.039 34.8083C176.979 34.985 176.966 35.1461 177.001 35.2919C177.038 35.4313 177.099 35.5508 177.185 35.6506C177.266 35.7418 177.35 35.8057 177.436 35.8421ZM181.429 32.8454L178.58 31.8727L177.475 31.7065L176.998 31.216L177.479 29.806L177.886 29.9449L177.972 29.8791C177.933 29.7882 177.892 29.6688 177.851 29.5209C177.806 29.3646 177.779 29.1862 177.77 28.9859C177.761 28.7855 177.794 28.5749 177.869 28.3541C178.063 27.7863 178.369 27.4154 178.788 27.2414C179.207 27.0673 179.706 27.0794 180.287 27.2776L181.489 27.688L182.503 27.8124L183.012 28.2082L182.431 29.9117L179.951 29.065C179.711 28.9832 179.51 28.9743 179.347 29.0385C179.18 29.0942 179.059 29.2325 178.984 29.4533L178.963 30.1014L182.011 31.1419L181.429 32.8454ZM184.165 25.142C184.016 25.5773 183.809 25.9469 183.543 26.2506C183.28 26.5481 182.942 26.7427 182.53 26.8346C182.121 26.9201 181.626 26.8638 181.045 26.6656C180.459 26.4653 180.036 26.1976 179.777 25.8626C179.511 25.5255 179.367 25.1555 179.342 24.7526C179.318 24.3498 179.373 23.9496 179.509 23.5521C179.627 23.2051 179.741 22.9129 179.851 22.6755C179.962 22.4317 180.041 22.2721 180.088 22.1965L181.173 21.7428L181.946 22.8521L180.931 23.7206C180.745 24.2632 180.987 24.6487 181.656 24.877C182.003 24.9955 182.286 25.0007 182.507 24.8927C182.72 24.7825 182.885 24.5571 183.002 24.2164C183.118 23.8757 183.175 23.5536 183.173 23.25C183.171 22.9464 183.155 22.7049 183.125 22.5255L184.487 22.9908C184.522 23.2208 184.522 23.5097 184.487 23.8573C184.449 24.1964 184.342 24.6247 184.165 25.142ZM187.553 22.4298L186.624 23.6026L185.344 22.7426L186.174 21.5469C186.267 21.2756 186.261 21.0553 186.157 20.8859C186.061 20.7123 185.898 20.5509 185.667 20.4016L185.335 21.3764L181.743 21.3122L180.451 21.0719L181.065 19.2738L184.366 19.8197L184.43 19.6305L181.485 18.0436L182.099 16.2455C182.099 16.2455 182.192 16.3021 182.379 16.4152C182.562 16.5198 182.804 16.666 183.106 16.8537C183.411 17.0351 183.745 17.2442 184.108 17.4809C184.466 17.7091 184.829 17.9457 185.197 18.1908C185.557 18.4338 185.886 18.6692 186.181 18.8969C186.647 19.2461 187.009 19.5987 187.268 19.9547C187.529 20.3045 187.683 20.6777 187.731 21.0744C187.785 21.4733 187.726 21.9251 187.553 22.4298Z" fill="#0C5374"/>
</svg>