<svg width="26" height="26" viewBox="0 0 26 26" fill="none" xmlns="http://www.w3.org/2000/svg">
<g id="twitter 1" clip-path="url(#clip0_3118_1487)">
<g id="Group">
<g id="Group_2">
<path id="Vector" d="M25.1321 5.58613C24.2138 5.98895 23.2354 6.25594 22.2152 6.38558C23.2647 5.75899 24.0657 4.77434 24.4423 3.58751C23.4638 4.17089 22.3834 4.58297 21.2321 4.81292C20.303 3.82364 18.9788 3.21094 17.5343 3.21094C14.7316 3.21094 12.4752 5.48582 12.4752 8.27463C12.4752 8.6759 12.5092 9.06173 12.5925 9.42905C8.38382 9.22378 4.65975 7.20664 2.158 4.13385C1.72123 4.89163 1.46504 5.75899 1.46504 6.69271C1.46504 8.44594 2.36789 10.0001 3.71368 10.8998C2.90034 10.8844 2.10244 10.6483 1.42646 10.2763C1.42646 10.2918 1.42646 10.3118 1.42646 10.3319C1.42646 12.792 3.18123 14.8354 5.48235 15.3061C5.07028 15.4187 4.62117 15.4728 4.15508 15.4728C3.83098 15.4728 3.50379 15.4542 3.19667 15.3863C3.85258 17.3911 5.71385 18.865 7.927 18.9129C6.20463 20.2602 4.01772 21.072 1.65024 21.072C1.23508 21.072 0.836902 21.0535 0.438721 21.0025C2.68119 22.4486 5.33882 23.2743 8.2048 23.2743C17.5204 23.2743 22.6134 15.5576 22.6134 8.86881C22.6134 8.64503 22.6057 8.42896 22.5949 8.21444C23.5996 7.50142 24.4438 6.61091 25.1321 5.58613Z" fill="black"/>
</g>
</g>
</g>
<defs>
<clipPath id="clip0_3118_1487">
<rect width="24.6934" height="24.6934" fill="white" transform="translate(0.438721 0.895508)"/>
</clipPath>
</defs>
</svg>
