<svg width="26" height="26" viewBox="0 0 26 26" fill="none" xmlns="http://www.w3.org/2000/svg">
<g id="twitter 1" clip-path="url(#clip0_3118_1487)">
<g id="Group">
<g id="Group_2">
<path id="Vector" d="M25.1314 5.58613C24.2131 5.98895 23.2346 6.25594 22.2145 6.38558C23.264 5.75899 24.065 4.77434 24.4415 3.58751C23.463 4.17089 22.3827 4.58297 21.2314 4.81292C20.3023 3.82364 18.9781 3.21094 17.5335 3.21094C14.7308 3.21094 12.4745 5.48582 12.4745 8.27463C12.4745 8.6759 12.5084 9.06173 12.5918 9.42905C8.38309 9.22378 4.65902 7.20664 2.15727 4.13385C1.7205 4.89163 1.46431 5.75899 1.46431 6.69271C1.46431 8.44594 2.36716 10.0001 3.71295 10.8998C2.89961 10.8844 2.10171 10.6483 1.42572 10.2763C1.42572 10.2918 1.42572 10.3118 1.42572 10.3319C1.42572 12.792 3.1805 14.8354 5.48162 15.3061C5.06955 15.4187 4.62043 15.4728 4.15435 15.4728C3.83025 15.4728 3.50306 15.4542 3.19593 15.3863C3.85185 17.3911 5.71312 18.865 7.92626 18.9129C6.2039 20.2602 4.01699 21.072 1.64951 21.072C1.23435 21.072 0.836169 21.0535 0.437988 21.0025C2.68046 22.4486 5.33809 23.2743 8.20407 23.2743C17.5197 23.2743 22.6127 15.5576 22.6127 8.86881C22.6127 8.64503 22.605 8.42896 22.5941 8.21444C23.5989 7.50142 24.4431 6.61091 25.1314 5.58613Z" fill="black"/>
</g>
</g>
</g>
<defs>
<clipPath id="clip0_3118_1487">
<rect width="24.6934" height="24.6934" fill="white" transform="translate(0.437988 0.895508)"/>
</clipPath>
</defs>
</svg>
