<svg width="29" height="28" viewBox="0 0 29 28" fill="none" xmlns="http://www.w3.org/2000/svg">
<g clip-path="url(#clip0_2_1117)">
<path d="M15.0477 5.72046C8.69647 5.72046 3.5293 10.7005 3.5293 16.8217C3.5293 22.943 8.69647 27.923 15.0477 27.923C21.3989 27.923 26.5661 22.943 26.5661 16.8217C26.5661 10.7005 21.399 5.72046 15.0477 5.72046ZM15.0477 26.2971C9.62665 26.2971 5.21624 22.0465 5.21624 16.8217C5.21624 11.597 9.62665 7.34636 15.0477 7.34636C20.4688 7.34636 24.8792 11.597 24.8792 16.8217C24.8792 22.0465 20.4688 26.2971 15.0477 26.2971Z" fill="white"/>
<path d="M20.0783 18.8861C19.7248 18.5938 19.1922 18.6331 18.889 18.9739C17.9259 20.056 16.5259 20.6767 15.0481 20.6767C13.5704 20.6767 12.1704 20.0561 11.2073 18.9739C10.904 18.6332 10.3715 18.5939 10.018 18.8862C9.66438 19.1785 9.62361 19.6918 9.92693 20.0325C11.2109 21.4751 13.0776 22.3026 15.0482 22.3026C17.0188 22.3026 18.8854 21.4751 20.1694 20.0324C20.4727 19.6916 20.4319 19.1784 20.0783 18.8861Z" fill="white"/>
<path d="M10.365 15.5432C10.8308 15.5432 11.2084 15.1792 11.2084 14.7302C11.2084 14.4696 11.4285 14.2576 11.6989 14.2576C11.9693 14.2576 12.1893 14.4696 12.1893 14.7302C12.1893 15.1792 12.567 15.5432 13.0328 15.5432C13.4986 15.5432 13.8763 15.1792 13.8763 14.7302C13.8763 13.5731 12.8995 12.6317 11.6989 12.6317C10.4983 12.6317 9.52148 13.5731 9.52148 14.7302C9.52148 15.1793 9.89914 15.5432 10.365 15.5432Z" fill="white"/>
<path d="M18.3971 12.6317C17.1965 12.6317 16.2197 13.5731 16.2197 14.7303C16.2197 15.1792 16.5974 15.5432 17.0632 15.5432C17.529 15.5432 17.9067 15.1792 17.9067 14.7303C17.9067 14.4696 18.1267 14.2576 18.3971 14.2576C18.6675 14.2576 18.8876 14.4696 18.8876 14.7303C18.8876 15.1792 19.2652 15.5432 19.731 15.5432C20.1969 15.5432 20.5745 15.1792 20.5745 14.7303C20.5745 13.5731 19.5977 12.6317 18.3971 12.6317Z" fill="white"/>
<path d="M21.9968 4.74169H23.2273C23.6931 4.74169 24.0708 4.37772 24.0708 3.92877C24.0708 3.47982 23.6931 3.11584 23.2273 3.11584H21.9968C21.531 3.11584 21.1533 3.47982 21.1533 3.92877C21.1533 4.37772 21.531 4.74169 21.9968 4.74169Z" fill="white"/>
<path d="M25.0778 7.68227C25.5437 7.68227 25.9213 7.3183 25.9213 6.86935V5.68341C25.9213 5.23446 25.5437 4.87048 25.0778 4.87048C24.612 4.87048 24.2344 5.23446 24.2344 5.68341V6.86935C24.2344 7.31836 24.612 7.68227 25.0778 7.68227Z" fill="white"/>
<path d="M28.159 3.11584H26.9284C26.4626 3.11584 26.085 3.47982 26.085 3.92877C26.085 4.37772 26.4626 4.74169 26.9284 4.74169H28.159C28.6248 4.74169 29.0024 4.37772 29.0024 3.92877C29.0024 3.47982 28.6248 3.11584 28.159 3.11584Z" fill="white"/>
<path d="M25.0778 2.98697C25.5437 2.98697 25.9213 2.62299 25.9213 2.17404V0.988094C25.9213 0.539144 25.5437 0.175171 25.0778 0.175171C24.612 0.175171 24.2344 0.539144 24.2344 0.988094V2.17404C24.2344 2.62299 24.612 2.98697 25.0778 2.98697Z" fill="white"/>
<path d="M2.03775 4.19971H1.05539C0.589565 4.19971 0.211914 4.56368 0.211914 5.01263C0.211914 5.46158 0.589565 5.82555 1.05539 5.82555H2.03775C2.50357 5.82555 2.88122 5.46158 2.88122 5.01263C2.88122 4.56368 2.50357 4.19971 2.03775 4.19971Z" fill="white"/>
<path d="M4.64007 7.63129V6.68451C4.64007 6.23555 4.26242 5.87158 3.7966 5.87158C3.33078 5.87158 2.95312 6.23555 2.95312 6.68451V7.63129C2.95312 8.08024 3.33078 8.44421 3.7966 8.44421C4.26242 8.44421 4.64007 8.08024 4.64007 7.63129Z" fill="white"/>
<path d="M5.55441 5.82555H6.53678C7.0026 5.82555 7.38025 5.46158 7.38025 5.01263C7.38025 4.56368 7.0026 4.19971 6.53678 4.19971H5.55441C5.08859 4.19971 4.71094 4.56368 4.71094 5.01263C4.71094 5.46158 5.08859 5.82555 5.55441 5.82555Z" fill="white"/>
<path d="M3.7966 4.15369C4.26242 4.15369 4.64007 3.78972 4.64007 3.34076V2.39398C4.64007 1.94503 4.26242 1.58105 3.7966 1.58105C3.33078 1.58105 2.95312 1.94503 2.95312 2.39398V3.34076C2.95312 3.78972 3.33078 4.15369 3.7966 4.15369Z" fill="white"/>
</g>
<defs>
<clipPath id="clip0_2_1117">
<rect width="28.7905" height="27.7478" fill="white" transform="translate(0.211914 0.175171)"/>
</clipPath>
</defs>
</svg>
