<svg width="946" height="1048" viewBox="0 0 946 1048" fill="none" xmlns="http://www.w3.org/2000/svg">
<path fill-rule="evenodd" clip-rule="evenodd" d="M429.254 791.461C444.69 822.802 458.475 850.79 483.812 869.381C500.855 881.886 567.842 905.017 648.687 932.932C749.187 967.634 871.101 1009.73 945.101 1048H37C16.5655 1048 0 1031.43 0 1011V29.9999C0 17.8484 5.85785 7.06497 14.9037 0.31958C51.5161 80.9591 89.3638 174.742 126.03 265.596C199.025 446.47 267.335 615.735 311.884 646.572C329.872 659.024 339.837 668.853 353.569 682.398C356.282 685.074 359.142 687.896 362.241 690.911C395.832 723.602 413.412 759.297 429.254 791.461Z" fill="#1090CB" fill-opacity="0.21"/>
</svg>
