<svg width="31" height="56" viewBox="0 0 31 56" fill="none" xmlns="http://www.w3.org/2000/svg">
<path d="M26.7707 0.566895H3.93928C3.00807 0.568114 2.11536 0.938574 1.4569 1.59704C0.798437 2.2555 0.427978 3.14821 0.426758 4.07942V51.4984C0.427978 52.4296 0.798437 53.3224 1.4569 53.9808C2.11536 54.6393 3.00807 55.0097 3.93928 55.011H26.7707C27.7019 55.0097 28.5946 54.6393 29.253 53.9808C29.9115 53.3224 30.282 52.4296 30.2832 51.4984V4.07942C30.282 3.14821 29.9115 2.2555 29.253 1.59704C28.5946 0.938574 27.7019 0.568114 26.7707 0.566895ZM19.4646 2.32315L18.9707 4.07942H11.6504L11.2113 2.32315H19.4646ZM28.5269 51.4984C28.5263 51.964 28.3411 52.4104 28.0119 52.7396C27.6826 53.0689 27.2363 53.2541 26.7707 53.2547H3.93928C3.47368 53.2541 3.02732 53.0689 2.69809 52.7396C2.36886 52.4104 2.18363 51.964 2.18302 51.4984V4.07942C2.18363 3.61381 2.36886 3.16746 2.69809 2.83823C3.02732 2.50899 3.47368 2.32376 3.93928 2.32315H9.40015L10.1125 5.17049C10.16 5.36047 10.2696 5.52912 10.424 5.64964C10.5783 5.77017 10.7685 5.83565 10.9643 5.83568H19.6359C19.8272 5.83567 20.0134 5.77316 20.1659 5.65764C20.3185 5.54213 20.4291 5.37993 20.4811 5.19574L21.2889 2.32315H26.7707C27.2363 2.32376 27.6826 2.50899 28.0119 2.83823C28.3411 3.16746 28.5263 3.61381 28.5269 4.07942V51.4984Z" fill="#6E00FA"/>
<path d="M10.9645 49.7422H4.81758C4.58469 49.7422 4.36133 49.8347 4.19665 49.9994C4.03197 50.1641 3.93945 50.3874 3.93945 50.6203C3.93945 50.8532 4.03197 51.0766 4.19665 51.2413C4.36133 51.4059 4.58469 51.4984 4.81758 51.4984H10.9645C11.1974 51.4984 11.4207 51.4059 11.5854 51.2413C11.7501 51.0766 11.8426 50.8532 11.8426 50.6203C11.8426 50.3874 11.7501 50.1641 11.5854 49.9994C11.4207 49.8347 11.1974 49.7422 10.9645 49.7422Z" fill="#6E00FA"/>
<path d="M14.477 49.7422H13.5988C13.3659 49.7422 13.1426 49.8347 12.9779 49.9994C12.8132 50.1641 12.7207 50.3874 12.7207 50.6203C12.7207 50.8532 12.8132 51.0766 12.9779 51.2413C13.1426 51.4059 13.3659 51.4984 13.5988 51.4984H14.477C14.7099 51.4984 14.9332 51.4059 15.0979 51.2413C15.2626 51.0766 15.3551 50.8532 15.3551 50.6203C15.3551 50.3874 15.2626 50.1641 15.0979 49.9994C14.9332 49.8347 14.7099 49.7422 14.477 49.7422Z" fill="#6E00FA"/>
<path d="M18.4415 22.6452C18.3426 22.5858 18.233 22.5466 18.119 22.5296C18.0049 22.5126 17.8886 22.5183 17.7767 22.5462C17.6648 22.5742 17.5596 22.6239 17.4669 22.6926C17.3743 22.7612 17.296 22.8475 17.2367 22.9464L11.9679 31.7277C11.8481 31.9274 11.8125 32.1665 11.869 32.3925C11.9255 32.6184 12.0694 32.8126 12.2691 32.9325C12.4688 33.0523 12.708 33.0879 12.9339 33.0314C13.1598 32.9749 13.3541 32.831 13.4739 32.6313L18.7427 23.85C18.802 23.7511 18.8413 23.6415 18.8583 23.5274C18.8753 23.4133 18.8696 23.2971 18.8416 23.1852C18.8137 23.0733 18.7639 22.968 18.6953 22.8754C18.6266 22.7827 18.5404 22.7045 18.4415 22.6452Z" fill="#6E00FA"/>
<path d="M21.3091 22.8495C21.2371 22.7594 21.148 22.6845 21.0469 22.6289C20.9459 22.5732 20.8348 22.5381 20.7202 22.5254C20.4887 22.4997 20.2565 22.5671 20.0746 22.7126C19.8927 22.8582 19.7761 23.07 19.7505 23.3015C19.7248 23.5331 19.7922 23.7653 19.9377 23.9472L23.0112 27.789L19.9377 31.6308C19.7922 31.8126 19.7248 32.0449 19.7505 32.2764C19.7761 32.5079 19.8927 32.7198 20.0746 32.8653C20.2565 33.0109 20.4887 33.0782 20.7202 33.0526C20.9517 33.0269 21.1636 32.9103 21.3091 32.7284L24.8217 28.3378C24.9464 28.1821 25.0143 27.9885 25.0143 27.789C25.0143 27.5895 24.9464 27.3959 24.8217 27.2401L21.3091 22.8495Z" fill="#6E00FA"/>
<path d="M9.40047 32.7285C9.54603 32.9103 9.75787 33.0269 9.98939 33.0526C10.2209 33.0783 10.4532 33.0109 10.635 32.8653C10.8169 32.7198 10.9335 32.5079 10.9591 32.2764C10.9848 32.0449 10.9174 31.8127 10.7719 31.6308L7.69844 27.789L10.7719 23.9472C10.844 23.8571 10.8976 23.7537 10.9297 23.643C10.9618 23.5322 10.9718 23.4162 10.9591 23.3015C10.9464 23.1869 10.9113 23.0759 10.8556 22.9748C10.8 22.8738 10.7251 22.7847 10.635 22.7126C10.545 22.6405 10.4416 22.5869 10.3308 22.5548C10.22 22.5227 10.104 22.5127 9.98939 22.5254C9.87476 22.5381 9.76374 22.5732 9.6627 22.6289C9.56165 22.6845 9.47255 22.7594 9.40047 22.8495L5.88795 27.2401C5.76326 27.3959 5.69531 27.5895 5.69531 27.789C5.69531 27.9885 5.76326 28.1821 5.88795 28.3378L9.40047 32.7285Z" fill="#6E00FA"/>
</svg>
