<svg width="46" height="46" viewBox="0 0 46 46" fill="none" xmlns="http://www.w3.org/2000/svg">
<g clip-path="url(#clip0_3118_1612)">
<path d="M21.6899 23.3765C21.1697 23.3765 20.7476 22.9543 20.7476 22.4341V13.0103C20.7476 12.4901 21.1697 12.0679 21.6899 12.0679H24.5171C26.596 12.0679 28.2866 13.7585 28.2866 15.8374C28.2866 17.9163 26.596 19.6069 24.5171 19.6069H22.6323V22.4341C22.6323 22.9543 22.2101 23.3765 21.6899 23.3765ZM22.6323 17.7222H24.5171C25.5575 17.7222 26.4019 16.8759 26.4019 15.8374C26.4019 14.7989 25.5575 13.9526 24.5171 13.9526H22.6323V17.7222Z" fill="#B50097"/>
<path d="M27.3442 23.3765C27.103 23.3765 26.8617 23.2842 26.677 23.1013L22.9075 19.3318C22.54 18.9643 22.54 18.3668 22.9075 17.9993C23.275 17.6318 23.8725 17.6318 24.24 17.9993L28.0095 21.7688C28.3771 22.1363 28.3771 22.7338 28.0095 23.1013C27.8267 23.2842 27.5855 23.3765 27.3442 23.3765Z" fill="#B50097"/>
<path d="M13.2085 23.3764C12.792 23.3764 12.4263 23.1031 12.3057 22.7054L9.47854 13.2816C9.32776 12.784 9.61048 12.2582 10.1099 12.1074C10.6075 11.9604 11.1334 12.2412 11.2842 12.7388L13.2085 19.1545L15.1328 12.7407C15.2817 12.2412 15.8114 11.9623 16.3052 12.1093C16.8046 12.2601 17.0874 12.784 16.9366 13.2835L14.1094 22.7073C13.9907 23.1031 13.625 23.3764 13.2085 23.3764Z" fill="#B50097"/>
<path d="M34.8833 17.7222C33.3246 17.7222 32.0562 16.4537 32.0562 14.895C32.0562 13.3363 33.3246 12.0679 34.8833 12.0679C36.442 12.0679 37.7105 13.3363 37.7105 14.895C37.7105 16.4537 36.442 17.7222 34.8833 17.7222ZM34.8833 13.9526C34.365 13.9526 33.9409 14.3748 33.9409 14.895C33.9409 15.4152 34.365 15.8374 34.8833 15.8374C35.4016 15.8374 35.8257 15.4152 35.8257 14.895C35.8257 14.3748 35.4016 13.9526 34.8833 13.9526Z" fill="#B50097"/>
<path d="M40.5376 32.8003H28.6071C28.2018 32.8003 27.8418 32.5402 27.7118 32.1557L26.8844 29.6678C26.7543 29.2928 26.3906 29.0308 25.9872 29.0308H19.2775C18.8741 29.0308 18.5122 29.2928 18.3747 29.6829L17.551 32.1576C17.4228 32.5402 17.0629 32.8003 16.6576 32.8003H4.72705C2.12796 32.8003 0.0151367 30.6856 0.0151367 28.0884V11.1255C0.0151367 8.52828 2.12796 6.41357 4.72705 6.41357H40.5376C43.1367 6.41357 45.2495 8.52828 45.2495 11.1255V28.0884C45.2495 30.6856 43.1367 32.8003 40.5376 32.8003ZM29.2856 30.9156H40.5376C42.0963 30.9156 43.3648 29.6471 43.3648 28.0884V11.1255C43.3648 9.56679 42.0963 8.29834 40.5376 8.29834H4.72705C3.16835 8.29834 1.8999 9.56679 1.8999 11.1255V28.0884C1.8999 29.6471 3.16835 30.9156 4.72705 30.9156H15.9791L16.5917 29.0722C16.9988 27.915 18.075 27.146 19.2775 27.146H25.9891C27.1916 27.146 28.2678 27.915 28.6693 29.0591L29.2856 30.9156Z" fill="#B50097"/>
<path d="M38.6529 8.29835C38.1327 8.29835 37.7105 7.87616 37.7105 7.35596V5.4712C37.7105 3.91249 36.442 2.64404 34.8833 2.64404H10.3814C8.82265 2.64404 7.5542 3.91249 7.5542 5.4712V7.35596C7.5542 7.87616 7.13201 8.29835 6.61182 8.29835C6.09162 8.29835 5.66943 7.87616 5.66943 7.35596V5.4712C5.66943 2.87399 7.78226 0.759277 10.3814 0.759277H34.8833C37.4824 0.759277 39.5952 2.87399 39.5952 5.4712V7.35596C39.5952 7.87616 39.173 8.29835 38.6529 8.29835Z" fill="#B50097"/>
<path d="M20.7473 45.9939C20.4627 45.9939 20.1781 45.8639 19.9934 45.617C19.6824 45.2004 19.7673 44.6105 20.1838 44.2976L22.9487 42.2244L20.1819 40.1512C19.7654 39.8383 19.6806 39.2484 19.9915 38.8318C20.3063 38.4134 20.8962 38.3342 21.3109 38.6433L25.0804 41.4705C25.3179 41.6477 25.4574 41.9285 25.4574 42.2244C25.4574 42.5203 25.3179 42.8011 25.0804 42.9783L21.3109 45.8055C21.1431 45.9317 20.9434 45.9939 20.7473 45.9939Z" fill="#B50097"/>
<path d="M22.6323 43.1664C20.7005 43.1664 18.7309 43.0948 16.7801 42.9572C8.67564 42.3729 0.0151367 40.3883 0.0151367 36.5697C0.0151367 36.1721 0.118799 35.7631 0.322354 35.356C0.556065 34.8885 1.12526 34.7019 1.58892 34.9357C2.05257 35.1694 2.24105 35.7348 2.00922 36.2003C1.9376 36.3436 1.8999 36.468 1.8999 36.5697C1.8999 37.9513 6.67025 40.3393 16.914 41.0781C18.8345 41.2138 20.7419 41.3476 22.6719 41.2817C23.1167 41.2817 23.5446 41.2817 23.9705 41.2647C24.5152 41.2421 24.9299 41.6473 24.9525 42.1675C24.9732 42.6877 24.568 43.1269 24.0497 43.1476C23.5823 43.1664 23.1167 43.1664 22.6323 43.1664Z" fill="#B50097"/>
<path d="M29.2083 42.8836C28.724 42.8836 28.3112 42.5104 28.2716 42.0185C28.2302 41.5001 28.6146 41.044 29.133 41.0007C38.8433 40.2072 43.3648 37.887 43.3648 36.5696C43.3648 36.4678 43.3271 36.3434 43.2555 36.2002C43.0237 35.7346 43.2122 35.1692 43.6758 34.9355C44.1376 34.6999 44.7068 34.8884 44.9424 35.3558C45.1459 35.7629 45.2496 36.1719 45.2496 36.5696C45.2496 41.2118 33.0325 42.5745 29.2875 42.8817C29.263 42.8836 29.2347 42.8836 29.2083 42.8836Z" fill="#B50097"/>
</g>
<defs>
<clipPath id="clip0_3118_1612">
<rect width="45.2344" height="45.2344" fill="white" transform="translate(0.0151367 0.759277)"/>
</clipPath>
</defs>
</svg>
