<svg width="158" height="134" viewBox="0 0 158 134" fill="none" xmlns="http://www.w3.org/2000/svg">
<path d="M129.817 8.33586L154.816 8.33586L113.737 125.382L89.4073 125.382L129.817 8.33586Z" fill="#1090CB" fill-opacity="0.7"/>
<path d="M64.8975 88.0111L42.3324 88.0111L54.193 125.382L77.2923 125.382L64.8975 88.0111Z" fill="#1090CB" fill-opacity="0.52"/>
<path d="M95.0341 91.1841L77.6099 91.2962L88.6782 125.377L106.083 125.377L95.0341 91.1841Z" fill="#1090CB" fill-opacity="0.7"/>
<path d="M75.2677 91.2214L90.7928 91.2214L79.4092 125.414L62.4013 125.414L75.2677 91.2214Z" fill="#1090CB" fill-opacity="0.7"/>
<path d="M44.1791 8.64347L69.1774 8.64348L28.0984 125.689L3.76914 125.689L44.1791 8.64347Z" fill="#1090CB" fill-opacity="0.9"/>
<path d="M70.0657 8.64356L52.2349 8.64356L72.2452 67.7234L88.7328 66.0961L70.0657 8.64356Z" fill="#1090CB" fill-opacity="0.9"/>
<path d="M65.0336 64.3753L69.9595 79.0982L33.9215 79.1518L28.5251 63.0228L65.0336 64.3753Z" fill="#1090CB" fill-opacity="0.9"/>
<path d="M99.7882 70.3406L98.7528 69.9871L98.5507 69.9603L98.4481 69.883L98.6407 69.319C98.6717 69.2281 98.7103 69.1441 98.7564 69.0668C98.8017 68.9879 98.8589 68.9236 98.9279 68.8739C98.9975 68.823 99.0822 68.7935 99.1822 68.7853C99.2826 68.7759 99.4022 68.7949 99.541 68.8423C99.6798 68.8897 99.7874 68.9483 99.8636 69.018C99.9386 69.0873 99.9892 69.1637 100.016 69.2474C100.042 69.3311 100.05 69.4184 100.04 69.5094C100.031 69.5992 100.011 69.6882 99.9807 69.7765L99.7882 70.3406ZM99.6029 69.8927L99.6779 69.6731C99.7158 69.5621 99.7159 69.467 99.6781 69.3879C99.639 69.3083 99.5526 69.2457 99.4189 69.2001C99.2851 69.1544 99.1821 69.153 99.1096 69.1959C99.0364 69.2371 98.981 69.3126 98.9435 69.4224L98.8686 69.6419L99.6029 69.8927ZM99.3951 68.3908L99.0708 68.5485L98.9125 68.226L99.2349 68.0677L99.3951 68.3908ZM100.285 68.885L99.6587 68.671L99.4937 68.6591L99.3912 68.5818L99.5082 68.2392L100.402 68.5443L100.285 68.885ZM101.06 68.1184C101.05 68.1499 101.036 68.1855 101.02 68.225C101.005 68.2649 100.992 68.2971 100.981 68.3215L100.79 68.5142L100.576 68.3356L100.774 68.0714C100.832 67.9036 100.79 67.7958 100.65 67.7479L100.614 67.7357L100.598 67.7513C100.61 67.775 100.619 67.8097 100.624 67.8553C100.629 67.8991 100.617 67.9621 100.589 68.0441C100.569 68.1034 100.535 68.1559 100.487 68.2015C100.438 68.2467 100.374 68.2757 100.296 68.2886C100.219 68.3003 100.128 68.2883 100.024 68.2525C99.9062 68.2124 99.8182 68.1627 99.7596 68.1032C99.6998 68.0433 99.6627 67.9806 99.6484 67.9152C99.6346 67.8485 99.6378 67.7854 99.658 67.7261C99.6804 67.6605 99.7082 67.6101 99.7413 67.575C99.7749 67.5385 99.8029 67.5164 99.8253 67.5085L99.7628 67.4872L99.8798 67.1446L99.9998 67.1645L100.106 67.2241L100.773 67.4497C100.882 67.4867 100.963 67.5383 101.016 67.6045C101.07 67.6694 101.1 67.7457 101.105 67.8335C101.111 67.92 101.096 68.0149 101.06 68.1184ZM100.371 67.811C100.379 67.7883 100.383 67.7664 100.383 67.7453C100.383 67.7243 100.382 67.7084 100.38 67.6979L100.026 67.577C100.02 67.5808 100.013 67.589 100.005 67.6015C99.9964 67.6141 99.988 67.6324 99.9798 67.6564C99.963 67.7056 99.9654 67.7501 99.9871 67.7899C100.009 67.8297 100.055 67.8616 100.126 67.8858C100.195 67.9095 100.25 67.9128 100.291 67.8958C100.331 67.8784 100.357 67.8502 100.371 67.811ZM99.9562 66.7477L99.6318 66.9053L99.4736 66.5829L99.796 66.4246L99.9562 66.7477ZM100.846 67.2418L100.22 67.0279L100.055 67.0159L99.9523 66.9386L100.069 66.5961L100.963 66.9011L100.846 67.2418ZM101.166 66.3682C101.136 66.454 101.088 66.5141 101.02 66.5486C100.951 66.5831 100.879 66.5872 100.802 66.5609L100.389 66.4201L100.342 66.5582L100.162 66.4968L100.11 66.3459L99.9215 66.1314L99.9977 65.9081L100.272 66.0018L100.363 65.7368L100.609 65.8208L100.518 66.0858L100.923 66.2241L101.012 65.9585L101.218 66.0289C101.218 66.0289 101.218 66.0458 101.218 66.0795C101.217 66.1115 101.212 66.153 101.205 66.204C101.199 66.2554 101.186 66.3101 101.166 66.3682ZM101.417 65.6326C101.398 65.6868 101.374 65.7347 101.342 65.7762C101.311 65.8161 101.27 65.8432 101.222 65.8576C101.173 65.872 101.114 65.8673 101.045 65.8436C100.982 65.8221 100.935 65.7884 100.904 65.7427C100.873 65.6969 100.857 65.6435 100.855 65.5823C100.853 65.5212 100.864 65.4565 100.887 65.3884C100.91 65.3228 100.934 65.2761 100.961 65.2485C100.986 65.2204 101.01 65.197 101.033 65.1782L101.026 65.1611C100.988 65.1481 100.956 65.1405 100.928 65.1382C100.901 65.1359 100.877 65.144 100.857 65.1624C100.835 65.1803 100.816 65.2133 100.8 65.2612C100.784 65.3079 100.771 65.3593 100.762 65.4153C100.752 65.4696 100.746 65.521 100.743 65.5695C100.74 65.6163 100.74 65.6523 100.744 65.6776L100.46 65.5807C100.46 65.5368 100.466 65.477 100.479 65.4012C100.492 65.3237 100.516 65.232 100.552 65.126C100.591 65.0124 100.636 64.9278 100.688 64.8721C100.738 64.8147 100.795 64.7807 100.86 64.7703C100.923 64.7593 100.991 64.7666 101.066 64.792L101.317 64.878L101.521 64.9054L101.62 64.9814L101.51 65.305L101.417 65.2733L101.401 65.289C101.408 65.3026 101.416 65.3252 101.426 65.3569C101.437 65.3886 101.443 65.4281 101.445 65.4753C101.446 65.5221 101.437 65.5745 101.417 65.6326ZM101.224 65.387C101.236 65.353 101.242 65.3229 101.244 65.2967C101.246 65.2694 101.247 65.2491 101.246 65.236L101.21 65.2238C101.193 65.2182 101.174 65.2248 101.15 65.2436C101.127 65.2611 101.108 65.2945 101.091 65.3437C101.067 65.4118 101.08 65.4541 101.128 65.4705C101.148 65.4774 101.166 65.475 101.181 65.4633C101.196 65.4516 101.211 65.4262 101.224 65.387ZM101.696 64.752L100.659 64.3998L100.456 64.373L100.356 64.2945L100.473 63.9538L101.813 64.4113L101.696 64.752ZM102.142 63.446L101 63.3941L100.793 63.3869L100.68 63.3481L100.802 62.9885L101.86 63.0854L101.873 63.0475L100.957 62.5342L101.127 62.0364L101.914 62.1402L102.165 62.192L102.178 62.1542L101.281 61.586L101.403 61.2302L101.516 61.2689L101.684 61.3897L102.621 62.0435L102.454 62.5338L101.399 62.3913L101.386 62.4311L101.604 62.5415L102.31 62.9558L102.142 63.446ZM102.924 61.2199C102.89 61.317 102.846 61.3985 102.792 61.4643C102.737 61.5301 102.668 61.5728 102.585 61.5924C102.502 61.6121 102.403 61.6021 102.287 61.5624C102.204 61.534 102.137 61.4958 102.087 61.4478C102.038 61.3985 102.003 61.3436 101.983 61.2832C101.961 61.2223 101.952 61.1594 101.956 61.0945C101.959 61.0292 101.971 60.965 101.992 60.9019C102.03 60.7934 102.069 60.7138 102.11 60.663C102.152 60.6111 102.182 60.5778 102.201 60.5631L102.534 60.5713L102.639 60.6492L102.438 61.2359C102.488 61.243 102.535 61.233 102.58 61.206C102.624 61.1789 102.661 61.1218 102.691 61.0347C102.714 60.9666 102.727 60.9053 102.728 60.851C102.73 60.7966 102.73 60.7536 102.728 60.7219L102.982 60.8085C102.989 60.8533 102.988 60.9142 102.978 60.9913C102.968 61.0667 102.95 61.1429 102.924 61.2199ZM102.318 61.1927L102.369 60.9185L102.282 60.9078C102.274 60.9149 102.266 60.9269 102.257 60.9437C102.249 60.9592 102.243 60.9733 102.239 60.9859C102.226 61.0212 102.224 61.0535 102.231 61.0826C102.238 61.1105 102.25 61.1344 102.268 61.1544C102.284 61.1726 102.301 61.1854 102.318 61.1927ZM103.337 60.0093C103.316 60.0698 103.294 60.1165 103.27 60.1492C103.248 60.1811 103.229 60.2035 103.213 60.2164C103.197 60.229 103.188 60.2352 103.188 60.2352L103.235 60.2514L103.119 60.5921L102.082 60.2379L101.879 60.213L101.779 60.1345L101.895 59.7938L102.2 59.8979L102.407 59.9898L102.423 59.9741C102.408 59.9407 102.396 59.902 102.387 59.8581C102.377 59.8125 102.383 59.7569 102.406 59.6913C102.444 59.579 102.51 59.5036 102.604 59.465C102.697 59.4252 102.822 59.4318 102.977 59.4848C103.093 59.5245 103.182 59.573 103.242 59.6303C103.302 59.686 103.339 59.7464 103.352 59.8114C103.365 59.8764 103.36 59.9424 103.337 60.0093ZM103.023 60.0816C103.04 60.0324 103.036 59.9874 103.012 59.9468C102.986 59.9057 102.939 59.8733 102.87 59.8496C102.801 59.8264 102.748 59.8215 102.71 59.8352C102.67 59.8484 102.642 59.8783 102.626 59.925L102.63 60.0446L102.968 60.1603C102.968 60.1603 102.975 60.1555 102.988 60.1459C103 60.1346 103.012 60.1131 103.023 60.0816ZM103.619 59.1224L103.33 58.9223L103.09 58.8403L103.081 58.6808L102.443 58.1885L102.611 57.6983L103.563 57.6831L103.881 57.6292L104.103 57.7048L103.988 58.0398L103.653 58.031L103.465 58.5818L103.74 58.7666L103.619 59.1224ZM103.216 58.3573L103.326 58.0356L102.844 58.0314L102.83 58.0712L103.216 58.3573ZM104.734 57.3592C104.724 57.3907 104.71 57.4263 104.694 57.4658C104.679 57.5057 104.666 57.5379 104.654 57.5623L104.464 57.7551L104.25 57.5764L104.448 57.3122C104.505 57.1444 104.464 57.0366 104.324 56.9887L104.288 56.9765L104.272 56.9922C104.284 57.0159 104.292 57.0505 104.298 57.0961C104.303 57.14 104.291 57.2029 104.263 57.2849C104.243 57.3442 104.209 57.3967 104.161 57.4423C104.111 57.4875 104.048 57.5165 103.97 57.5295C103.893 57.5411 103.802 57.5291 103.697 57.4933C103.58 57.4532 103.492 57.4035 103.433 57.344C103.374 57.2841 103.337 57.2215 103.322 57.156C103.308 57.0893 103.312 57.0263 103.332 56.967C103.354 56.9013 103.382 56.8509 103.415 56.8158C103.449 56.7793 103.477 56.7572 103.499 56.7493L103.437 56.728L103.554 56.3854L103.674 56.4053L103.78 56.4649L104.447 56.6905C104.556 56.7275 104.637 56.7791 104.69 56.8453C104.744 56.9102 104.774 56.9865 104.779 57.0743C104.784 57.1608 104.77 57.2557 104.734 57.3592ZM104.045 57.0518C104.052 57.0291 104.056 57.0072 104.057 56.9862C104.057 56.9651 104.056 56.9493 104.054 56.9387L103.7 56.8178C103.694 56.8216 103.687 56.8298 103.679 56.8424C103.67 56.8549 103.662 56.8732 103.654 56.8972C103.637 56.9464 103.639 56.9909 103.661 57.0307C103.683 57.0705 103.729 57.1025 103.799 57.1266C103.869 57.1503 103.924 57.1536 103.965 57.1366C104.005 57.1192 104.031 57.091 104.045 57.0518ZM104.688 56.0537C104.655 56.1509 104.61 56.2324 104.556 56.2982C104.501 56.364 104.432 56.4067 104.349 56.4263C104.266 56.446 104.167 56.436 104.051 56.3963C103.968 56.3679 103.901 56.3297 103.851 56.2817C103.802 56.2324 103.767 56.1775 103.747 56.1171C103.725 56.0562 103.716 55.9933 103.72 55.9284C103.723 55.8631 103.735 55.7989 103.756 55.7358C103.794 55.6273 103.833 55.5476 103.874 55.4969C103.916 55.4449 103.946 55.4116 103.965 55.397L104.298 55.4051L104.403 55.4831L104.202 56.0698C104.252 56.0769 104.299 56.0669 104.344 56.0399C104.388 56.0128 104.425 55.9557 104.455 55.8686C104.478 55.8005 104.491 55.7392 104.492 55.6849C104.494 55.6305 104.494 55.5875 104.492 55.5558L104.746 55.6424C104.753 55.6872 104.752 55.7481 104.742 55.8252C104.732 55.9006 104.714 55.9768 104.688 56.0537ZM104.082 56.0266L104.133 55.7524L104.046 55.7417C104.038 55.7488 104.03 55.7607 104.021 55.7776C104.013 55.7931 104.007 55.8072 104.003 55.8198C103.99 55.8551 103.988 55.8874 103.995 55.9165C104.002 55.9444 104.015 55.9683 104.032 55.9882C104.048 56.0065 104.065 56.0193 104.082 56.0266ZM104.881 55.4272L104.311 55.2327L104.09 55.1994L103.994 55.1013L104.091 54.8193L104.172 54.8471L104.189 54.834C104.181 54.8158 104.173 54.7919 104.165 54.7623C104.156 54.731 104.15 54.6954 104.149 54.6553C104.147 54.6152 104.153 54.5731 104.169 54.529C104.207 54.4154 104.269 54.3412 104.352 54.3064C104.436 54.2716 104.536 54.274 104.652 54.3136L104.892 54.3957L105.095 54.4206L105.197 54.4998L105.081 54.8405L104.585 54.6711C104.537 54.6548 104.497 54.653 104.464 54.6658C104.431 54.677 104.407 54.7046 104.391 54.7488L104.387 54.8784L104.997 55.0865L104.881 55.4272ZM105.428 53.8865C105.398 53.9736 105.357 54.0475 105.303 54.1083C105.251 54.1677 105.183 54.2067 105.101 54.225C105.019 54.2422 104.92 54.2309 104.804 54.1913C104.686 54.1512 104.602 54.0977 104.55 54.0307C104.497 53.9632 104.468 53.8892 104.463 53.8087C104.458 53.7281 104.469 53.6481 104.497 53.5686C104.52 53.4992 104.543 53.4407 104.565 53.3932C104.587 53.3445 104.603 53.3125 104.612 53.2974L104.829 53.2067L104.984 53.4285L104.781 53.6023C104.744 53.7108 104.792 53.7879 104.926 53.8335C104.995 53.8572 105.052 53.8583 105.096 53.8367C105.139 53.8146 105.172 53.7696 105.195 53.7014C105.218 53.6333 105.23 53.5688 105.229 53.5081C105.229 53.4474 105.226 53.3991 105.22 53.3632L105.492 53.4563C105.499 53.5023 105.499 53.5601 105.492 53.6296C105.485 53.6974 105.463 53.7831 105.428 53.8865ZM106.105 53.3441L105.92 53.5786L105.663 53.4066L105.83 53.1675C105.848 53.1133 105.847 53.0692 105.826 53.0353C105.807 53.0006 105.774 52.9683 105.728 52.9385L105.662 53.1334L104.943 53.1206L104.685 53.0725L104.808 52.7129L105.468 52.8221L105.481 52.7842L104.892 52.4668L105.015 52.1072C105.015 52.1072 105.033 52.1185 105.071 52.1412C105.107 52.1621 105.156 52.1913 105.216 52.2289C105.277 52.2652 105.344 52.307 105.416 52.3543C105.488 52.3999 105.561 52.4473 105.634 52.4963C105.706 52.5449 105.772 52.592 105.831 52.6375C105.924 52.7073 105.996 52.7779 106.048 52.8491C106.1 52.919 106.131 52.9937 106.141 53.073C106.152 53.1528 106.14 53.2431 106.105 53.3441Z" fill="#0C5374"/>
</svg>
