<svg width="342" height="1013" viewBox="0 0 342 1013" fill="none" xmlns="http://www.w3.org/2000/svg">
<path fill-rule="evenodd" clip-rule="evenodd" d="M154.971 763.025C160.544 793.564 165.52 820.836 174.668 838.951C180.82 851.135 205.004 873.674 234.191 900.875C270.475 934.69 314.49 975.71 341.205 1013H37C16.5655 1013 0 996.434 0 976V21.9999C0 14.0333 2.51785 6.65464 6.8012 0.616455C19.5757 77.2444 32.7359 165.258 45.4993 250.618C71.8523 426.863 96.5139 591.796 112.597 621.844C119.091 633.977 122.689 643.555 127.646 656.753C128.626 659.361 129.659 662.11 130.777 665.048C142.905 696.903 149.252 731.684 154.971 763.025Z" fill="#1090CB" fill-opacity="0.21"/>
</svg>
