<svg width="104" height="780" viewBox="0 0 104 780" fill="none" xmlns="http://www.w3.org/2000/svg">
<path fill-rule="evenodd" clip-rule="evenodd" d="M0.348633 767.732C7.1217 775.264 16.9422 780 27.8689 780H66.8569C87.2915 780 103.857 763.435 103.857 743L103.857 0.283691C99.4351 16.6624 94.7027 157.996 90.8236 273.844C88.3398 348.024 86.2058 411.755 84.7273 425.54C82.7942 443.563 79.8149 449.326 76.4753 455.787C72.8454 462.808 68.7899 470.653 65.1896 495.961C64.0713 503.821 63.3405 515.679 62.6215 527.344C62.0822 536.094 61.5495 544.737 60.865 551.502C57.5515 584.248 45.0438 618.006 32.163 652.771C18.3909 689.942 4.19215 728.264 0.348633 767.732Z" fill="#1090CB" fill-opacity="0.5"/>
</svg>
