<svg width="57" height="57" viewBox="0 0 57 57" fill="none" xmlns="http://www.w3.org/2000/svg">
<g clip-path="url(#clip0_3118_1628)">
<path d="M28.6324 0.0600586C13.137 0.0600586 0.532227 12.6661 0.532227 28.1602C0.532227 43.6544 13.137 56.2604 28.6324 56.2604C44.1278 56.2604 56.7326 43.6544 56.7326 28.1602C56.7326 12.6661 44.1278 0.0600586 28.6324 0.0600586ZM28.6324 53.9187C14.4291 53.9187 2.87387 42.3635 2.87387 28.1602C2.87387 13.9569 14.4291 2.4017 28.6324 2.4017C42.8357 2.4017 54.3909 13.9569 54.3909 28.1602C54.3909 42.3635 42.8357 53.9187 28.6324 53.9187Z" fill="#FF4E4E"/>
<path d="M22.7783 11.7686H15.7532C13.8163 11.7686 12.2407 13.3441 12.2407 15.2811V22.3061C12.2407 24.243 13.8163 25.8186 15.7532 25.8186H22.7783C24.7152 25.8186 26.2908 24.243 26.2908 22.3061V15.2811C26.2908 13.3441 24.7152 11.7686 22.7783 11.7686ZM23.949 22.3061C23.949 22.9521 23.423 23.477 22.7782 23.477H15.7531C15.1083 23.477 14.5823 22.9522 14.5823 22.3061V15.2811C14.5823 14.6351 15.1083 14.1102 15.7531 14.1102H22.7782C23.423 14.1102 23.949 14.635 23.949 15.2811V22.3061Z" fill="#FF4E4E"/>
<path d="M41.5117 11.7686H34.4866C32.5497 11.7686 30.9741 13.3441 30.9741 15.2811V22.3061C30.9741 24.243 32.5497 25.8186 34.4866 25.8186H41.5117C43.4486 25.8186 45.0242 24.243 45.0242 22.3061V15.2811C45.0242 13.3441 43.4486 11.7686 41.5117 11.7686ZM42.6826 22.3061C42.6826 22.9521 42.1566 23.477 41.5117 23.477H34.4866C33.8418 23.477 33.3158 22.9522 33.3158 22.3061V15.2811C33.3158 14.6351 33.8418 14.1102 34.4866 14.1102H41.5117C42.1566 14.1102 42.6826 14.635 42.6826 15.2811V22.3061Z" fill="#FF4E4E"/>
<path d="M22.7783 30.502H15.7532C13.8163 30.502 12.2407 32.0775 12.2407 34.0145V41.0395C12.2407 42.9765 13.8163 44.552 15.7532 44.552H22.7783C24.7152 44.552 26.2908 42.9765 26.2908 41.0395V34.0145C26.2908 32.0776 24.7152 30.502 22.7783 30.502ZM23.949 41.0395C23.949 41.6855 23.423 42.2104 22.7782 42.2104H15.7531C15.1083 42.2104 14.5823 41.6856 14.5823 41.0395V34.0145C14.5823 33.3685 15.1083 32.8436 15.7531 32.8436H22.7782C23.423 32.8436 23.949 33.3684 23.949 34.0145V41.0395Z" fill="#FF4E4E"/>
<path d="M41.5117 30.502H34.4866C32.5497 30.502 30.9741 32.0775 30.9741 34.0145V41.0395C30.9741 42.9765 32.5497 44.552 34.4866 44.552H41.5117C43.4486 44.552 45.0242 42.9765 45.0242 41.0395V34.0145C45.0242 32.0776 43.4486 30.502 41.5117 30.502ZM42.6826 41.0395C42.6826 41.6855 42.1566 42.2104 41.5117 42.2104H34.4866C33.8418 42.2104 33.3158 41.6856 33.3158 41.0395V34.0145C33.3158 33.3685 33.8418 32.8436 34.4866 32.8436H41.5117C42.1566 32.8436 42.6826 33.3684 42.6826 34.0145V41.0395Z" fill="#FF4E4E"/>
</g>
<defs>
<clipPath id="clip0_3118_1628">
<rect width="56.2003" height="56.2003" fill="white" transform="translate(0.532227 0.0600586)"/>
</clipPath>
</defs>
</svg>
