<svg width="57" height="57" viewBox="0 0 57 57" fill="none" xmlns="http://www.w3.org/2000/svg">
<g clip-path="url(#clip0_3118_1570)">
<path d="M39.7707 1.56689H16.9393C16.0081 1.56811 15.1154 1.93857 14.4569 2.59704C13.7984 3.2555 13.428 4.14821 13.4268 5.07942V52.4984C13.428 53.4296 13.7984 54.3224 14.4569 54.9808C15.1154 55.6393 16.0081 56.0097 16.9393 56.011H39.7707C40.7019 56.0097 41.5946 55.6393 42.253 54.9808C42.9115 54.3224 43.282 53.4296 43.2832 52.4984V5.07942C43.282 4.14821 42.9115 3.2555 42.253 2.59704C41.5946 1.93857 40.7019 1.56811 39.7707 1.56689ZM32.4646 3.32315L31.9707 5.07942H24.6504L24.2113 3.32315H32.4646ZM41.5269 52.4984C41.5263 52.964 41.3411 53.4104 41.0119 53.7396C40.6826 54.0689 40.2363 54.2541 39.7707 54.2547H16.9393C16.4737 54.2541 16.0273 54.0689 15.6981 53.7396C15.3689 53.4104 15.1836 52.964 15.183 52.4984V5.07942C15.1836 4.61381 15.3689 4.16746 15.6981 3.83823C16.0273 3.50899 16.4737 3.32376 16.9393 3.32315H22.4002L23.1125 6.17049C23.16 6.36047 23.2696 6.52912 23.424 6.64964C23.5783 6.77017 23.7685 6.83565 23.9643 6.83568H32.6359C32.8272 6.83567 33.0134 6.77316 33.1659 6.65764C33.3185 6.54213 33.4291 6.37993 33.4811 6.19574L34.2889 3.32315H39.7707C40.2363 3.32376 40.6826 3.50899 41.0119 3.83823C41.3411 4.16746 41.5263 4.61381 41.5269 5.07942V52.4984Z" fill="#6E00FA"/>
<path d="M23.9645 50.7422H17.8176C17.5847 50.7422 17.3613 50.8347 17.1967 50.9994C17.032 51.1641 16.9395 51.3874 16.9395 51.6203C16.9395 51.8532 17.032 52.0766 17.1967 52.2413C17.3613 52.4059 17.5847 52.4984 17.8176 52.4984H23.9645C24.1974 52.4984 24.4207 52.4059 24.5854 52.2413C24.7501 52.0766 24.8426 51.8532 24.8426 51.6203C24.8426 51.3874 24.7501 51.1641 24.5854 50.9994C24.4207 50.8347 24.1974 50.7422 23.9645 50.7422Z" fill="#6E00FA"/>
<path d="M27.477 50.7422H26.5988C26.3659 50.7422 26.1426 50.8347 25.9779 50.9994C25.8132 51.1641 25.7207 51.3874 25.7207 51.6203C25.7207 51.8532 25.8132 52.0766 25.9779 52.2413C26.1426 52.4059 26.3659 52.4984 26.5988 52.4984H27.477C27.7099 52.4984 27.9332 52.4059 28.0979 52.2413C28.2626 52.0766 28.3551 51.8532 28.3551 51.6203C28.3551 51.3874 28.2626 51.1641 28.0979 50.9994C27.9332 50.8347 27.7099 50.7422 27.477 50.7422Z" fill="#6E00FA"/>
<path d="M31.4415 23.6452C31.3426 23.5858 31.233 23.5466 31.119 23.5296C31.0049 23.5126 30.8886 23.5183 30.7767 23.5462C30.6648 23.5742 30.5596 23.6239 30.4669 23.6926C30.3743 23.7612 30.296 23.8475 30.2367 23.9464L24.9679 32.7277C24.8481 32.9274 24.8125 33.1665 24.869 33.3925C24.9255 33.6184 25.0694 33.8126 25.2691 33.9325C25.4688 34.0523 25.708 34.0879 25.9339 34.0314C26.1598 33.9749 26.3541 33.831 26.4739 33.6313L31.7427 24.85C31.802 24.7511 31.8413 24.6415 31.8583 24.5274C31.8753 24.4133 31.8696 24.2971 31.8416 24.1852C31.8137 24.0733 31.7639 23.968 31.6953 23.8754C31.6266 23.7827 31.5404 23.7045 31.4415 23.6452Z" fill="#6E00FA"/>
<path d="M34.3091 23.8495C34.2371 23.7594 34.148 23.6845 34.0469 23.6289C33.9459 23.5732 33.8348 23.5381 33.7202 23.5254C33.4887 23.4997 33.2565 23.5671 33.0746 23.7126C32.8927 23.8582 32.7761 24.07 32.7505 24.3015C32.7248 24.5331 32.7922 24.7653 32.9377 24.9472L36.0112 28.789L32.9377 32.6308C32.7922 32.8126 32.7248 33.0449 32.7505 33.2764C32.7761 33.5079 32.8927 33.7198 33.0746 33.8653C33.2565 34.0109 33.4887 34.0782 33.7202 34.0526C33.9517 34.0269 34.1636 33.9103 34.3091 33.7284L37.8217 29.3378C37.9464 29.1821 38.0143 28.9885 38.0143 28.789C38.0143 28.5895 37.9464 28.3959 37.8217 28.2401L34.3091 23.8495Z" fill="#6E00FA"/>
<path d="M22.4005 33.7285C22.546 33.9103 22.7579 34.0269 22.9894 34.0526C23.2209 34.0783 23.4532 34.0109 23.635 33.8653C23.8169 33.7198 23.9335 33.5079 23.9591 33.2764C23.9848 33.0449 23.9174 32.8127 23.7719 32.6308L20.6984 28.789L23.7719 24.9472C23.844 24.8571 23.8976 24.7537 23.9297 24.643C23.9618 24.5322 23.9718 24.4162 23.9591 24.3015C23.9464 24.1869 23.9113 24.0759 23.8556 23.9748C23.8 23.8738 23.7251 23.7847 23.635 23.7126C23.545 23.6405 23.4416 23.5869 23.3308 23.5548C23.22 23.5227 23.104 23.5127 22.9894 23.5254C22.8748 23.5381 22.7637 23.5732 22.6627 23.6289C22.5616 23.6845 22.4725 23.7594 22.4005 23.8495L18.888 28.2401C18.7633 28.3959 18.6953 28.5895 18.6953 28.789C18.6953 28.9885 18.7633 29.1821 18.888 29.3378L22.4005 33.7285Z" fill="#6E00FA"/>
</g>
<defs>
<clipPath id="clip0_3118_1570">
<rect width="56.2003" height="56.2003" fill="white" transform="translate(0.254883 0.688965)"/>
</clipPath>
</defs>
</svg>
