<svg width="41" height="41" viewBox="0 0 41 41" fill="none" xmlns="http://www.w3.org/2000/svg">
<g clip-path="url(#clip0_3113_416)">
<path d="M20.5 0C9.19561 0 0 9.19649 0 20.5C0 31.8035 9.19561 41 20.5 41C31.8044 41 41 31.8035 41 20.5C41 9.19649 31.8044 0 20.5 0ZM20.5 39.2917C10.1382 39.2917 1.70831 30.8618 1.70831 20.5C1.70831 10.1382 10.1382 1.70831 20.5 1.70831C30.8618 1.70831 39.2917 10.1382 39.2917 20.5C39.2917 30.8618 30.8618 39.2917 20.5 39.2917Z" fill="#FF4E4E"/>
<path d="M16.2292 8.5415H11.1042C9.69119 8.5415 8.54175 9.69095 8.54175 11.104V16.229C8.54175 17.6421 9.69119 18.7915 11.1042 18.7915H16.2292C17.6423 18.7915 18.7917 17.6421 18.7917 16.229V11.104C18.7917 9.69095 17.6423 8.5415 16.2292 8.5415ZM17.0834 16.229C17.0834 16.7003 16.6996 17.0832 16.2292 17.0832H11.1042C10.6337 17.0832 10.25 16.7003 10.25 16.229V11.104C10.25 10.6327 10.6337 10.2498 11.1042 10.2498H16.2292C16.6996 10.2498 17.0834 10.6327 17.0834 11.104V16.229Z" fill="#FF4E4E"/>
<path d="M29.8958 8.5415H24.7708C23.3577 8.5415 22.2083 9.69095 22.2083 11.104V16.229C22.2083 17.6421 23.3577 18.7915 24.7708 18.7915H29.8958C31.3088 18.7915 32.4583 17.6421 32.4583 16.229V11.104C32.4583 9.69095 31.3088 8.5415 29.8958 8.5415ZM30.7499 16.229C30.7499 16.7003 30.3662 17.0832 29.8958 17.0832H24.7708C24.3003 17.0832 23.9166 16.7003 23.9166 16.229V11.104C23.9166 10.6327 24.3003 10.2498 24.7708 10.2498H29.8958C30.3662 10.2498 30.7499 10.6327 30.7499 11.104V16.229Z" fill="#FF4E4E"/>
<path d="M16.2292 22.2085H11.1042C9.69119 22.2085 8.54175 23.3579 8.54175 24.771V29.896C8.54175 31.3091 9.69119 32.4585 11.1042 32.4585H16.2292C17.6423 32.4585 18.7917 31.3091 18.7917 29.896V24.771C18.7917 23.358 17.6423 22.2085 16.2292 22.2085ZM17.0834 29.896C17.0834 30.3673 16.6996 30.7502 16.2292 30.7502H11.1042C10.6337 30.7502 10.25 30.3673 10.25 29.896V24.771C10.25 24.2997 10.6337 23.9168 11.1042 23.9168H16.2292C16.6996 23.9168 17.0834 24.2997 17.0834 24.771V29.896Z" fill="#FF4E4E"/>
<path d="M29.8958 22.2085H24.7708C23.3577 22.2085 22.2083 23.3579 22.2083 24.771V29.896C22.2083 31.3091 23.3577 32.4585 24.7708 32.4585H29.8958C31.3088 32.4585 32.4583 31.3091 32.4583 29.896V24.771C32.4583 23.358 31.3088 22.2085 29.8958 22.2085ZM30.7499 29.896C30.7499 30.3673 30.3662 30.7502 29.8958 30.7502H24.7708C24.3003 30.7502 23.9166 30.3673 23.9166 29.896V24.771C23.9166 24.2997 24.3003 23.9168 24.7708 23.9168H29.8958C30.3662 23.9168 30.7499 24.2997 30.7499 24.771V29.896Z" fill="#FF4E4E"/>
</g>
<defs>
<clipPath id="clip0_3113_416">
<rect width="41" height="41" fill="white"/>
</clipPath>
</defs>
</svg>
