<svg width="57" height="57" viewBox="0 0 57 57" fill="none" xmlns="http://www.w3.org/2000/svg">
<g clip-path="url(#clip0_3118_1582)">
<path d="M29.7444 27.0221C29.3152 26.5929 28.6204 26.5929 28.1912 27.0221C27.7631 27.4502 27.7631 28.145 28.1912 28.5742C28.6204 29.0023 29.3152 29.0023 29.7444 28.5742C30.1725 28.145 30.1725 27.4502 29.7444 27.0221Z" fill="#0073C6"/>
<path d="M43.7149 13.051C41.5701 10.9062 38.098 10.9061 35.9531 13.051C33.8138 15.1902 33.8137 18.672 35.9534 20.813C38.0934 22.9516 41.5752 22.9525 43.7149 20.8127C45.8596 18.6681 45.86 15.1959 43.7149 13.051ZM42.1626 19.2603C40.8791 20.5439 38.7898 20.5439 37.5057 19.2605C36.222 17.9761 36.2219 15.8868 37.5055 14.6033C38.7923 13.3165 40.8756 13.3163 42.1626 14.6033C43.4494 15.89 43.4496 17.9734 42.1626 19.2603Z" fill="#0073C6"/>
<path d="M56.133 0.632062C55.9175 0.416592 55.6233 0.299801 55.3175 0.311326C55.0693 0.320217 49.16 0.557751 42.1356 3.04055C36.5068 5.02797 31.815 7.87344 28.1907 11.4979C27.3785 12.3101 26.5882 13.1713 25.832 14.066C22.2484 11.9565 19.3767 12.618 17.5612 13.5895C13.3812 15.8265 10.7939 21.9006 10.7939 26.2451C10.7943 26.689 11.0618 27.0893 11.4719 27.2591C11.6076 27.3154 11.7503 27.3428 11.8917 27.3428C12.1774 27.3428 12.4581 27.2311 12.6681 27.0213C14.8725 24.8168 17.5915 24.9547 18.4798 25.0715L18.8642 25.4559C18.1077 27.256 17.4982 29.0461 17.0513 30.7871C16.8899 31.4172 16.9444 32.0839 17.1842 32.6937C16.1274 33.1808 15.1078 33.8959 14.22 34.7837C11.3945 37.6093 10.8207 44.4954 10.7977 44.7871C10.7724 45.1073 10.8886 45.4225 11.1157 45.6497C11.3224 45.8562 11.6019 45.9712 11.8917 45.9712C11.9205 45.9712 11.9493 45.9701 11.9782 45.9678C12.27 45.9448 19.1563 45.3711 21.9817 42.5456C22.8692 41.6581 23.5842 40.6386 24.0712 39.582C24.7169 39.8359 25.3814 39.8672 25.979 39.7141C27.7192 39.2672 29.5091 38.658 31.3094 37.9014L31.6938 38.2858C31.8105 39.1741 31.9484 41.8931 29.7441 44.0973C29.4302 44.4113 29.3363 44.8834 29.5062 45.2935C29.676 45.7037 30.0762 45.9711 30.5202 45.9711C34.8648 45.9711 40.9387 43.3838 43.1757 39.2038C44.1472 37.3885 44.8087 34.5168 42.6992 30.9331C43.5935 30.1772 44.4548 29.3869 45.2673 28.5744C48.8918 24.95 51.7371 20.2582 53.7246 14.6299C56.2075 7.60506 56.4449 1.6957 56.4538 1.44762C56.4648 1.14302 56.3485 0.847643 56.133 0.632062ZM13.2481 23.8841C13.93 20.5842 15.9105 16.9632 18.5975 15.525C20.3932 14.5641 22.3559 14.6583 24.4428 15.8006C22.6649 18.1389 21.1193 20.658 19.831 23.3182C19.8146 23.3081 19.6171 23.0597 19.25 22.9769C19.0991 22.9428 16.1948 22.3181 13.2481 23.8841ZM20.4294 40.9932C18.9201 42.5024 15.3796 43.2985 13.1418 43.6235C13.467 41.3856 14.2631 37.8452 15.7723 36.336C16.6175 35.4908 17.5975 34.85 18.5825 34.4891L22.2764 38.1829C21.9154 39.168 21.2747 40.148 20.4294 40.9932ZM25.4337 37.5874C25.116 37.6688 24.7481 37.5494 24.4745 37.2763C23.0545 35.8562 22.499 35.3007 22.3247 35.1265C22.005 34.8069 21.2212 34.023 19.4898 32.2916C19.2161 32.0173 19.0967 31.6494 19.1778 31.3323C19.5294 29.9631 19.9892 28.5583 20.5483 27.14L29.6254 36.2171C28.2069 36.7764 26.8023 37.2361 25.4337 37.5874ZM41.2404 38.1679C39.8023 40.8549 36.1813 42.8355 32.8815 43.5172C33.9336 41.5374 34.1656 39.017 33.7812 37.4888C33.6919 37.1338 33.4603 36.9553 33.4474 36.9343C36.1073 35.646 38.6263 34.1004 40.9648 32.3225C42.1071 34.4096 42.2012 36.3726 41.2404 38.1679ZM43.7152 27.0221C42.7261 28.0111 41.661 28.9666 40.5496 29.862C37.8776 32.0134 34.9368 33.8358 31.7992 35.2864L21.479 24.9664C22.9297 21.8287 24.752 18.8878 26.9032 16.2162C27.7993 15.1039 28.7548 14.0388 29.7434 13.0502C32.9952 9.7983 37.192 7.21023 42.2206 5.34728L51.4182 14.5448C49.5554 19.5733 46.9674 23.7701 43.7152 27.0221ZM52.2079 12.2297L44.5357 4.55752C48.7157 3.2592 52.3522 2.77305 54.1672 2.5983C53.9924 4.41372 53.5061 8.05016 52.2079 12.2297Z" fill="#0073C6"/>
<path d="M26.6391 45.6495C26.2102 45.2209 25.5152 45.2211 25.0866 45.6497L21.9825 48.755C21.5539 49.1837 21.554 49.8788 21.9827 50.3073C22.4115 50.7358 23.1066 50.7358 23.5351 50.3071L26.6393 47.2018C27.0678 46.7731 27.0677 46.078 26.6391 45.6495Z" fill="#0073C6"/>
<path d="M11.1169 30.1263C10.6884 29.6975 9.99348 29.6975 9.56462 30.1261L6.45934 33.2302C6.03059 33.6588 6.03048 34.3538 6.45901 34.7825C6.88743 35.2111 7.58235 35.2115 8.01132 34.7828L11.1166 31.6786C11.5453 31.2501 11.5455 30.555 11.1169 30.1263Z" fill="#0073C6"/>
<path d="M18.8778 47.2028C18.4494 46.7742 17.7542 46.7742 17.3255 47.2027L9.88993 54.6372C9.46119 55.0658 9.46119 55.7609 9.88982 56.1895C10.3182 56.6181 11.0134 56.6184 11.4421 56.1896L18.8777 48.7552C19.3064 48.3265 19.3064 47.6315 18.8778 47.2028Z" fill="#0073C6"/>
<path d="M10.0965 47.2028C9.66802 46.7742 8.97287 46.7742 8.54424 47.2027L1.10868 54.6372C0.679937 55.0658 0.679937 55.7609 1.10857 56.1895C1.53699 56.6181 2.23214 56.6184 2.66088 56.1896L10.0964 48.7552C10.5252 48.3265 10.5252 47.6315 10.0965 47.2028Z" fill="#0073C6"/>
<path d="M9.56311 37.8878C9.13459 37.4593 8.43944 37.4593 8.0108 37.8879L0.576346 45.3234C0.14771 45.7522 0.14771 46.4471 0.576456 46.8758C1.00509 47.3045 1.70013 47.3045 2.12877 46.8757L9.56322 39.4402C9.99186 39.0115 9.99186 38.3165 9.56311 37.8878Z" fill="#0073C6"/>
<path d="M34.4016 22.3644C33.9728 21.9358 33.278 21.9358 32.8492 22.3644L31.2971 23.9165C30.8684 24.3452 30.8684 25.0402 31.2971 25.469C31.7258 25.8976 32.4207 25.8976 32.8495 25.469L34.4016 23.9169C34.8302 23.4882 34.8302 22.7932 34.4016 22.3644Z" fill="#0073C6"/>
</g>
<defs>
<clipPath id="clip0_3118_1582">
<rect width="56.2003" height="56.2003" fill="white" transform="translate(0.254883 0.310547)"/>
</clipPath>
</defs>
</svg>
