<svg width="78" height="67" viewBox="0 0 78 67" fill="none" xmlns="http://www.w3.org/2000/svg">
<path d="M64.0865 4.11516L76.4275 4.11517L56.148 61.8973L44.1373 61.8973L64.0865 4.11516Z" fill="#1090CB" fill-opacity="0.7"/>
<path d="M32.0377 43.449L20.898 43.449L26.7532 61.8978L38.1567 61.8978L32.0377 43.449Z" fill="#1090CB" fill-opacity="0.52"/>
<path d="M46.9146 45.0154L38.3128 45.0707L43.7769 61.8954L52.3693 61.8954L46.9146 45.0154Z" fill="#1090CB" fill-opacity="0.7"/>
<path d="M37.1571 45.0333L44.8214 45.0332L39.2016 61.9133L30.8054 61.9133L37.1571 45.0333Z" fill="#1090CB" fill-opacity="0.7"/>
<path d="M21.8102 4.26653L34.1511 4.26654L13.8716 62.0486L1.86095 62.0486L21.8102 4.26653Z" fill="#1090CB" fill-opacity="0.9"/>
<path d="M34.5895 4.26632L25.787 4.26632L35.6654 33.4323L43.8049 32.6289L34.5895 4.26632Z" fill="#1090CB" fill-opacity="0.9"/>
<path d="M32.1053 31.7802L34.5371 39.0484L16.7462 39.0749L14.0821 31.1125L32.1053 31.7802Z" fill="#1090CB" fill-opacity="0.9"/>
<path d="M50.2471 34.9753L49.2118 34.6218L49.0096 34.595L48.9071 34.5178L49.0997 33.9537C49.1307 33.8629 49.1693 33.7788 49.2154 33.7016C49.2607 33.6227 49.3178 33.5584 49.3869 33.5087C49.4564 33.4577 49.5412 33.4282 49.6412 33.4201C49.7416 33.4107 49.8612 33.4297 50 33.4771C50.1388 33.5245 50.2463 33.583 50.3226 33.6528C50.3975 33.722 50.4482 33.7985 50.4746 33.8822C50.501 33.9659 50.5092 34.0532 50.4992 34.1442C50.4897 34.234 50.4699 34.323 50.4397 34.4113L50.2471 34.9753ZM50.0619 34.5275L50.1369 34.3079C50.1748 34.1969 50.1749 34.1018 50.1371 34.0227C50.098 33.9431 50.0116 33.8805 49.8779 33.8348C49.7441 33.7892 49.641 33.7878 49.5686 33.8307C49.4954 33.8719 49.44 33.9474 49.4025 34.0571L49.3276 34.2767L50.0619 34.5275ZM49.8541 33.0256L49.5298 33.1832L49.3715 32.8608L49.6939 32.7025L49.8541 33.0256ZM50.7442 33.5197L50.1177 33.3058L49.9527 33.2939L49.8502 33.2166L49.9671 32.874L50.8605 33.179L50.7442 33.5197ZM51.5195 32.7532C51.5087 32.7847 51.4952 32.8202 51.4789 32.8597C51.4638 32.8997 51.4507 32.9319 51.4396 32.9562L51.2491 33.149L51.0353 32.9704L51.2333 32.7062C51.2906 32.5383 51.2492 32.4305 51.1092 32.3827L51.0732 32.3704L51.0573 32.3861C51.0689 32.4098 51.0775 32.4444 51.0831 32.49C51.0878 32.5339 51.0762 32.5969 51.0482 32.6789C51.0279 32.7382 50.9938 32.7906 50.9459 32.8363C50.8966 32.8814 50.8332 32.9105 50.7555 32.9234C50.6782 32.9351 50.5872 32.923 50.4825 32.8873C50.3652 32.8472 50.2772 32.7974 50.2186 32.738C50.1587 32.6781 50.1217 32.6154 50.1074 32.5499C50.0935 32.4832 50.0967 32.4202 50.117 32.3609C50.1394 32.2953 50.1672 32.2449 50.2003 32.2097C50.2339 32.1733 50.2619 32.1511 50.2843 32.1433L50.2218 32.122L50.3388 31.7794L50.4588 31.7992L50.5653 31.8588L51.2322 32.0844C51.3407 32.1215 51.4217 32.1731 51.4752 32.2393C51.5291 32.3042 51.5587 32.3805 51.5639 32.4682C51.5696 32.5547 51.5548 32.6497 51.5195 32.7532ZM50.8298 32.4458C50.8376 32.4231 50.8415 32.4012 50.8417 32.3801C50.8418 32.359 50.8409 32.3432 50.8388 32.3327L50.4849 32.2118C50.4794 32.2156 50.4724 32.2237 50.4639 32.2363C50.4553 32.2489 50.447 32.2672 50.4388 32.2912C50.422 32.3404 50.4244 32.3849 50.446 32.4247C50.4677 32.4645 50.5138 32.4964 50.5845 32.5205C50.6539 32.5442 50.7091 32.5476 50.7501 32.5306C50.7899 32.5132 50.8164 32.4849 50.8298 32.4458ZM50.4152 31.3824L50.0908 31.5401L49.9325 31.2176L50.255 31.0593L50.4152 31.3824ZM51.3053 31.8766L50.6788 31.6626L50.5138 31.6507L50.4113 31.5734L50.5282 31.2308L51.4216 31.5359L51.3053 31.8766ZM51.6247 31.0029C51.5954 31.0887 51.5467 31.1489 51.4785 31.1834C51.4104 31.2179 51.3379 31.222 51.2609 31.1957L50.8483 31.0548L50.8011 31.193L50.6213 31.1316L50.5693 30.9807L50.3805 30.7662L50.4567 30.5428L50.7312 30.6365L50.8216 30.3716L51.0677 30.4556L50.9772 30.7205L51.3822 30.8589L51.4708 30.5932L51.6771 30.6637C51.6771 30.6637 51.677 30.6805 51.6768 30.7143C51.6757 30.7463 51.6714 30.7878 51.6638 30.8388C51.6576 30.8902 51.6445 30.9449 51.6247 31.0029ZM51.8759 30.2674C51.8573 30.3216 51.8325 30.3695 51.8015 30.411C51.7695 30.4508 51.7293 30.4779 51.6807 30.4924C51.6321 30.5068 51.5731 30.5021 51.5037 30.4784C51.4406 30.4569 51.3936 30.4232 51.3628 30.3775C51.3319 30.3317 51.3156 30.2782 51.314 30.2171C51.3123 30.1559 51.3231 30.0913 51.3464 30.0231C51.3688 29.9575 51.3932 29.9109 51.4195 29.8833C51.4446 29.8552 51.4688 29.8318 51.4921 29.813L51.4853 29.7958C51.4474 29.7829 51.4148 29.7753 51.3874 29.773C51.36 29.7707 51.3361 29.7787 51.3158 29.7971C51.2941 29.8151 51.2751 29.8481 51.2588 29.896C51.2428 29.9427 51.2302 29.994 51.221 30.0501C51.2109 30.1044 51.2046 30.1558 51.2021 30.2042C51.1988 30.251 51.1992 30.2871 51.2032 30.3124L50.9193 30.2155C50.9188 30.1716 50.9251 30.1118 50.9383 30.036C50.9507 29.9585 50.975 29.8667 51.0112 29.7608C51.05 29.6472 51.0951 29.5626 51.1465 29.5069C51.1971 29.4495 51.2545 29.4155 51.3186 29.405C51.3815 29.3941 51.4502 29.4013 51.5247 29.4268L51.7764 29.5127L51.9805 29.5401L52.0792 29.6161L51.9687 29.9398L51.876 29.9081L51.86 29.9238C51.8667 29.9373 51.8752 29.96 51.8855 29.9917C51.8958 30.0234 51.902 30.0628 51.9042 30.1101C51.9051 30.1569 51.8957 30.2093 51.8759 30.2674ZM51.6829 30.0218C51.6945 29.9877 51.7012 29.9576 51.7031 29.9315C51.7054 29.9041 51.706 29.8839 51.7048 29.8708L51.6689 29.8585C51.6525 29.8529 51.6326 29.8595 51.6093 29.8783C51.5864 29.8959 51.5665 29.9292 51.5497 29.9785C51.5265 30.0466 51.5388 30.0889 51.5867 30.1052C51.6069 30.1121 51.6247 30.1097 51.6399 30.098C51.6552 30.0863 51.6695 30.0609 51.6829 30.0218ZM52.1554 29.3868L51.1176 29.0345L50.9154 29.0078L50.8154 28.9292L50.9317 28.5885L52.2717 29.0461L52.1554 29.3868ZM52.6014 28.0808L51.4589 28.0288L51.2521 28.0216L51.1385 27.9828L51.2613 27.6232L52.3187 27.7201L52.3317 27.6823L51.4164 27.169L51.5864 26.6712L52.3731 26.775L52.6238 26.8268L52.6367 26.7889L51.7402 26.2207L51.8617 25.8649L51.9753 25.9037L52.1433 26.0245L53.0803 26.6783L52.9129 27.1685L51.8583 27.0261L51.8447 27.0659L52.0628 27.1762L52.7687 27.5906L52.6014 28.0808ZM53.3827 25.8546C53.3495 25.9518 53.3054 26.0333 53.2506 26.0991C53.1957 26.1649 53.1269 26.2076 53.0441 26.2272C52.9613 26.2468 52.8619 26.2368 52.7458 26.1972C52.6625 26.1688 52.5959 26.1305 52.5461 26.0825C52.4967 26.0333 52.4619 25.9784 52.4417 25.918C52.4202 25.8571 52.4114 25.7942 52.4152 25.7293C52.4178 25.664 52.4299 25.5997 52.4514 25.5366C52.4885 25.4281 52.5277 25.3485 52.5689 25.2978C52.6106 25.2458 52.641 25.2125 52.6601 25.1979L52.9934 25.206L53.0978 25.284L52.8974 25.8707C52.9471 25.8778 52.9942 25.8678 53.0387 25.8407C53.0832 25.8136 53.1203 25.7566 53.15 25.6695C53.1733 25.6014 53.1857 25.5401 53.1874 25.4857C53.189 25.4314 53.1889 25.3883 53.1871 25.3567L53.4407 25.4433C53.4479 25.4881 53.4469 25.549 53.4374 25.6261C53.4272 25.7015 53.4089 25.7777 53.3827 25.8546ZM52.7769 25.8274L52.8283 25.5533L52.7411 25.5426C52.733 25.5497 52.7247 25.5616 52.7161 25.5784C52.708 25.594 52.7018 25.608 52.6975 25.6207C52.6854 25.656 52.6829 25.6882 52.6898 25.7174C52.6972 25.7453 52.7095 25.7692 52.7266 25.7891C52.7429 25.8074 52.7597 25.8201 52.7769 25.8274ZM53.796 24.644C53.7753 24.7046 53.7531 24.7512 53.7292 24.7839C53.7071 24.8158 53.6881 24.8382 53.6724 24.8512C53.6555 24.8637 53.647 24.87 53.647 24.87L53.6943 24.8861L53.578 25.2268L52.5408 24.8727L52.338 24.8478L52.238 24.7693L52.3543 24.4286L52.659 24.5326L52.8664 24.6246L52.8824 24.6089C52.867 24.5755 52.8548 24.5368 52.8459 24.4929C52.8361 24.4473 52.8424 24.3917 52.8648 24.326C52.9032 24.2137 52.9691 24.1383 53.0625 24.0998C53.1564 24.06 53.281 24.0666 53.4362 24.1196C53.5523 24.1592 53.6407 24.2077 53.7014 24.2651C53.7613 24.3208 53.7977 24.3811 53.8108 24.4462C53.8238 24.5112 53.8189 24.5771 53.796 24.644ZM53.4818 24.7164C53.4986 24.6671 53.4949 24.6222 53.4708 24.5816C53.4453 24.5405 53.3979 24.5081 53.3285 24.4844C53.2604 24.4611 53.2071 24.4563 53.1686 24.4699C53.1289 24.4831 53.1011 24.5131 53.0851 24.5598L53.0887 24.6793L53.4275 24.795C53.4275 24.795 53.434 24.7902 53.4472 24.7806C53.4595 24.7693 53.471 24.7479 53.4818 24.7164ZM54.0777 23.7572L53.7889 23.5571L53.5485 23.475L53.5395 23.3156L52.9024 22.8233L53.0698 22.3331L54.0218 22.3179L54.3403 22.2639L54.5618 22.3395L54.4474 22.6745L54.1122 22.6658L53.9242 23.2165L54.1992 23.4013L54.0777 23.7572ZM53.6754 22.9921L53.7852 22.6703L53.3027 22.6662L53.2891 22.7059L53.6754 22.9921ZM55.1933 21.994C55.1826 22.0255 55.169 22.061 55.1527 22.1006C55.1377 22.1405 55.1246 22.1727 55.1134 22.197L54.9229 22.3898L54.7092 22.2112L54.9072 21.947C54.9645 21.7792 54.9231 21.6713 54.783 21.6235L54.7471 21.6112L54.7311 21.6269C54.7428 21.6506 54.7514 21.6853 54.757 21.7308C54.7617 21.7747 54.7501 21.8377 54.7221 21.9197C54.7018 21.979 54.6677 22.0315 54.6197 22.0771C54.5705 22.1222 54.507 22.1513 54.4293 22.1642C54.3521 22.1759 54.2611 22.1638 54.1564 22.1281C54.039 22.088 53.951 22.0382 53.8925 21.9788C53.8326 21.9189 53.7955 21.8562 53.7812 21.7908C53.7674 21.724 53.7706 21.661 53.7908 21.6017C53.8132 21.5361 53.841 21.4857 53.8742 21.4505C53.9077 21.4141 53.9357 21.392 53.9581 21.3841L53.8957 21.3628L54.0127 21.0202L54.1327 21.04L54.2391 21.0996L54.906 21.3252C55.0145 21.3623 55.0955 21.4139 55.149 21.4801C55.2029 21.545 55.2325 21.6213 55.2378 21.709C55.2435 21.7955 55.2287 21.8905 55.1933 21.994ZM54.5037 21.6866C54.5114 21.6639 54.5154 21.642 54.5155 21.6209C54.5157 21.5998 54.5147 21.584 54.5127 21.5735L54.1588 21.4526C54.1533 21.4564 54.1462 21.4645 54.1377 21.4771C54.1292 21.4897 54.1208 21.508 54.1126 21.532C54.0958 21.5812 54.0983 21.6257 54.1199 21.6655C54.1415 21.7053 54.1877 21.7372 54.2583 21.7614C54.3277 21.785 54.383 21.7884 54.424 21.7714C54.4637 21.754 54.4903 21.7257 54.5037 21.6866ZM55.1467 20.6885C55.1135 20.7857 55.0695 20.8671 55.0146 20.9329C54.9597 20.9987 54.8909 21.0415 54.8081 21.0611C54.7253 21.0807 54.6259 21.0707 54.5098 21.0311C54.4265 21.0027 54.36 20.9644 54.3102 20.9164C54.2608 20.8671 54.226 20.8123 54.2057 20.7518C54.1843 20.691 54.1754 20.6281 54.1793 20.5632C54.1819 20.4978 54.1939 20.4336 54.2155 20.3705C54.2525 20.262 54.2917 20.1824 54.333 20.1317C54.3747 20.0797 54.4051 20.0464 54.4241 20.0318L54.7574 20.0399L54.8618 20.1178L54.6615 20.7046C54.7112 20.7117 54.7582 20.7017 54.8027 20.6746C54.8472 20.6475 54.8843 20.5905 54.914 20.5034C54.9373 20.4353 54.9497 20.374 54.9514 20.3196C54.9531 20.2652 54.953 20.2222 54.9511 20.1906L55.2047 20.2772C55.212 20.3219 55.2109 20.3829 55.2015 20.46C55.1912 20.5354 55.173 20.6115 55.1467 20.6885ZM54.541 20.6613L54.5923 20.3872L54.5051 20.3764C54.497 20.3836 54.4887 20.3955 54.4802 20.4123C54.472 20.4279 54.4658 20.4419 54.4615 20.4546C54.4495 20.4899 54.4469 20.5221 54.4539 20.5513C54.4612 20.5792 54.4735 20.6031 54.4907 20.623C54.507 20.6413 54.5237 20.654 54.541 20.6613ZM55.3395 20.062L54.7698 19.8674L54.5487 19.8342L54.4532 19.7361L54.5495 19.4541L54.6309 19.4819L54.6481 19.4687C54.6402 19.4505 54.6322 19.4267 54.624 19.3971C54.6149 19.3658 54.6095 19.3301 54.6077 19.2901C54.6058 19.25 54.6125 19.2079 54.6276 19.1637C54.6663 19.0502 54.7276 18.976 54.8113 18.9412C54.8951 18.9064 54.995 18.9088 55.1111 18.9484L55.3514 19.0305L55.5543 19.0554L55.6562 19.1345L55.5398 19.4752L55.0439 19.3059C54.996 19.2895 54.9557 19.2878 54.9232 19.3006C54.8898 19.3117 54.8656 19.3394 54.8505 19.3835L54.8464 19.5132L55.4558 19.7213L55.3395 20.062ZM55.8867 18.5213C55.857 18.6084 55.8155 18.6823 55.7624 18.743C55.7097 18.8025 55.6421 18.8414 55.5598 18.8598C55.4778 18.8769 55.3788 18.8657 55.2628 18.826C55.1454 18.786 55.0608 18.7324 55.009 18.6654C54.956 18.598 54.927 18.524 54.9221 18.4434C54.9172 18.3628 54.9284 18.2828 54.9555 18.2033C54.9792 18.1339 55.002 18.0755 55.0238 18.028C55.0461 17.9792 55.0619 17.9473 55.0713 17.9322L55.2883 17.8414L55.4429 18.0633L55.2399 18.237C55.2028 18.3455 55.2512 18.4226 55.3849 18.4683C55.4543 18.492 55.511 18.493 55.555 18.4714C55.5978 18.4494 55.6308 18.4043 55.654 18.3362C55.6773 18.268 55.6887 18.2036 55.6883 18.1429C55.6879 18.0822 55.6847 18.0339 55.6786 17.998L55.9512 18.0911C55.958 18.1371 55.958 18.1948 55.9512 18.2643C55.9435 18.3322 55.922 18.4178 55.8867 18.5213ZM56.5643 17.9789L56.3786 18.2134L56.1224 18.0414L56.2886 17.8023C56.3071 17.748 56.306 17.704 56.2851 17.6701C56.266 17.6354 56.2334 17.6031 56.1872 17.5732L56.1206 17.7682L55.4022 17.7553L55.1439 17.7073L55.2667 17.3477L55.9268 17.4568L55.9398 17.419L55.3507 17.1016L55.4735 16.742C55.4735 16.742 55.4922 16.7533 55.5295 16.7759C55.5661 16.7969 55.6146 16.8261 55.675 16.8636C55.7359 16.8999 55.8026 16.9417 55.8752 16.9891C55.947 17.0347 56.0196 17.082 56.093 17.1311C56.1652 17.1797 56.2308 17.2267 56.2899 17.2723C56.383 17.3421 56.4555 17.4126 56.5072 17.4838C56.5594 17.5538 56.5903 17.6284 56.5998 17.7078C56.6106 17.7876 56.5988 17.8779 56.5643 17.9789Z" fill="#0C5374"/>
</svg>
